<svg xmlns="http://www.w3.org/2000/svg" viewBox="0 0 901.51 368.09"><title>logo</title><g id="Layer_2" data-name="Layer 2"><g id="Layer_1-2" data-name="Layer 1"><path d="M621.41,275.93H601.94c.42-.94.85-1.87,1.23-2.81a48.54,48.54,0,0,1-5.53,1.45c-.17.46-.38.89-.6,1.36H583.78c0-.09,0-.17.08-.26h-3.57l-.94-.51c-.08.26-.21.51-.3.77H565c.34-1.28.68-2.51,1-3.79l-4.08,1.19-.52.22c-.21.8-.42,1.57-.63,2.38H545.58c0-.09,0-.17,0-.26h-1.11l-3.1-.64c-.09.3-.13.6-.22.9H526.87c.13-1.24.21-2.51.34-3.79a21.82,21.82,0,0,1-4.42,2c0,.6-.13,1.15-.17,1.75H508c0-.72,0-1.41.08-2.13a18.83,18.83,0,0,1-4.17-2.25c-.08,1.49-.12,2.93-.17,4.38H486.64c-.09-.81-.13-1.66-.21-2.51a14.94,14.94,0,0,1-2.77.21,8.64,8.64,0,0,1-1.44-.08c0,.8.08,1.57.17,2.38H465.67c-.51-3.11-1-6.3-1.44-9.53a9.79,9.79,0,0,1-1.66.09,21,21,0,0,1-2.34-.13c.47,3.23.93,6.42,1.44,9.57H446.53c-1.36-4.89-2.59-9.95-3.78-15.23h1.83a22.18,22.18,0,0,1-6.25-7.27,6.61,6.61,0,0,0-.34-.64l-1-1.27-.29-.68q.57,2.81,1.15,5.61h-9.7c-.26.34-.55.68-.85,1l-.81.94c-.47.55-.94,1.06-1.36,1.57v.72h13.61c1.19,5.23,2.42,10.34,3.78,15.23H420.76q-1-2.74-1.78-5.36h-4.64c.85,2.76,1.74,5.49,2.68,8.17a254.23,254.23,0,0,0,9.87,24.49,184,184,0,0,0,9.61,17.95,134.9,134.9,0,0,0,14.12,19.18c16.37,18.41,35.59,27.73,57.16,27.73,24.45,0,47.71-9.23,69.15-27.52A168.1,168.1,0,0,0,596,321.43a220.3,220.3,0,0,0,13.74-17.9,284.23,284.23,0,0,0,15.14-24.45c1.27-2.26,2.51-4.6,3.7-6.94a17.64,17.64,0,0,1-3.62-2.8C623.84,271.51,622.65,273.72,621.41,275.93ZM487.28,318H475.07c-1.27-4.21-2.51-8.72-3.7-13.48h14Q486.26,311.55,487.28,318ZM472,322.2c1.66,5.27,3.4,10.12,5.31,14.63h-4.38a149.61,149.61,0,0,1-8.76-14.63ZM462.06,318c-2-4.21-4.09-8.72-6-13.48H467.2c1.15,4.67,2.3,9.18,3.53,13.48Zm17.09,23.13a96.35,96.35,0,0,0,5.06,9.57,86.52,86.52,0,0,1-8.2-9.57Zm-2.72-18.88H488c.93,5.32,1.87,10.21,2.89,14.63H482A155.26,155.26,0,0,1,476.43,322.2Zm6.34-42c.59,7.06,1.32,13.74,2,20H470.35q-2.1-9.37-4-20Zm-20.42,0c1.2,6.93,2.47,13.65,3.92,20H454.4c-2.38-6.21-4.63-12.84-6.72-20Zm-40.1,0h21.43c2.05,7.06,4.21,13.78,6.55,20H430.46C427.35,293.49,424.63,286.77,422.25,280.18Zm10.29,24.29h19.31c1.87,4.72,3.83,9.22,5.83,13.48H439.9C437.22,313.57,434.8,309,432.54,304.47Zm21,32.36a130.37,130.37,0,0,1-11-14.63h17.14c2.72,5.32,5.48,10.21,8.33,14.63Zm4,4.25H470.9c6.08,8.72,12.42,15.4,18.63,19.86C477.2,357.33,466.61,350.27,457.55,341.08Zm26.41,0h7.91c2.21,8.55,4.59,15.14,7.23,19.65C493.83,357.29,488.72,350.69,484,341.08Zm8.29-18.88H502c-.17,5.49-.3,10.33-.38,14.63h-6.47C494.12,332.53,493.19,327.64,492.25,322.2Zm3.92,18.88h5.4a141,141,0,0,0,.55,17C500.16,354.39,498.12,348.78,496.17,341.08ZM502.12,318H491.53c-.68-4.21-1.32-8.68-1.91-13.48h13C502.42,309.27,502.29,313.78,502.12,318Zm.72-19.44c0,.6,0,1.11-.08,1.7H489.11c-.77-6.16-1.45-12.84-2.09-20h16.5C503.31,286.65,503.06,292.77,502.84,298.51Zm79.32-18.33h12.93c-3.32,6.93-6.89,13.61-10.59,20h-11C576.5,293.79,579.44,287.07,582.16,280.18Zm-48.78,42h11.1c-2.38,5.27-4.89,10.16-7.4,14.63h-8.76C530,332.32,531.72,327.43,533.38,322.2Zm-9.78,14.63H519c.81-4.51,1.66-9.36,2.43-14.63h7.27C527,327.47,525.3,332.36,523.6,336.83ZM546.31,318H534.74c1.32-4.34,2.59-8.85,3.87-13.48h13C549.92,309.14,548.14,313.65,546.31,318ZM556,304.47h10.59c-2.34,4.67-4.76,9.18-7.23,13.48h-8.55C552.56,313.61,554.3,309.1,556,304.47Zm-7,17.73h7.87a176.73,176.73,0,0,1-9.95,14.63H541.8C544.27,332.32,546.65,327.43,548.94,322.2Zm12.85,0H570a173.1,173.1,0,0,1-12.38,14.63h-5.49C555.45,332.32,558.64,327.39,561.79,322.2ZM564.3,318c2.46-4.34,4.85-8.81,7.14-13.48H582c-2.85,4.67-5.83,9.18-8.89,13.48Zm-.51-37.77H577.4c-2.77,6.93-5.66,13.61-8.72,20H557.49Q560.81,290.52,563.79,280.18Zm-19.14,0h14.93c-2,6.93-4.17,13.61-6.43,20H539.76C541.46,293.75,543.07,287.07,544.65,280.18Zm-18.16,0h13.74q-2.43,10.4-5.07,20h-10.8C525.09,293.83,525.81,287.11,526.49,280.18Zm-2.64,24.29H534c-1.32,4.67-2.64,9.18-4,13.48h-8C522.66,313.65,523.26,309.14,523.85,304.47Zm-16.75-5.79c.21-5.78.46-12,.68-18.5h14.46c-.73,7-1.45,13.7-2.22,20h-13C507.05,299.7,507.05,299.19,507.1,298.68Zm-.22,5.79h12.63q-.88,7.08-1.78,13.48H506.37C506.54,313.61,506.67,309.1,506.88,304.47Zm-.64,17.73h10.85c-.77,5.32-1.57,10.21-2.38,14.63h-8.85C506,332.36,506.07,327.47,506.24,322.2Zm1.41,41.08c-1.49-1.95-2-10.08-1.83-22.2h8.12C511.56,353.37,509.35,361.11,507.65,363.28Zm10.5-22.2H522a113.8,113.8,0,0,1-7.82,16.38A151.52,151.52,0,0,0,518.15,341.08Zm-1.53,19.86c3.28-4.63,6.68-11.39,10.08-19.86h7.87C528.79,350.52,522.75,357.41,516.62,360.94Zm22.8-19.86h4.08a90.23,90.23,0,0,1-13.4,13.36A98.83,98.83,0,0,0,539.42,341.08Zm9.44,0h4.55a100.65,100.65,0,0,1-17,13.44A109.08,109.08,0,0,0,548.86,341.08Zm-10.46,17.1a108.8,108.8,0,0,0,21-17.1h9.7A109.89,109.89,0,0,1,538.4,358.18Zm35.81-21.35H563.36a177.5,177.5,0,0,0,11.91-14.63h13.91A157.78,157.78,0,0,1,574.21,336.83ZM592.92,318H578.29c2.93-4.26,5.87-8.76,8.67-13.48h16.51C600.15,309.06,596.66,313.57,592.92,318Zm13.57-17.74h-17c.43-.72.81-1.4,1.24-2.12,3.27-5.83,6.33-11.83,9.23-17.91H619C615.25,286.82,611.08,293.54,606.49,300.21Z"/><path d="M901.34,166.8a3.93,3.93,0,0,0-.09-.72c-2.72-13.15-31.21-38.49-48.61-52.91-14.2-11.82-34-26.88-46.06-34.28h15.23a2.12,2.12,0,0,0,2-1.36,2.16,2.16,0,0,0,.08-1.28,2.07,2.07,0,0,0-.64-1.31c-.85-.77-21.47-19.06-68.13-37.6a482.12,482.12,0,0,0-76.81-22.75v-.05h-.21c-7.14-1.48-14.59-2.93-22.37-4.29a4.81,4.81,0,0,0-1.1-.26v0c-6-1-12.25-2-18.72-2.9a11,11,0,0,0-2.63-.42V6.8c-4.89-.68-9.87-1.31-15-1.91a13.65,13.65,0,0,0-3-.38v.08c-4.76-.51-9.57-1-14.55-1.44a1.07,1.07,0,0,0-.38-.13V3.1c-4.46-.42-8.93-.8-13.52-1.1-.09,0-.22,0-.3,0-11.91-.81-24.33-1.41-37.3-1.7h0c-2.6-.09-5.32-.09-8-.09a.9.9,0,0,0-.3-.08V.17C537.25.09,533.59,0,529.81,0c-.81,0-1.62,0-2.47.09,0,0-.09-.09-.17-.09a3.93,3.93,0,0,0-.72.09c-.68,0-1.36,0-2.05,0v0l-.08,0c-1.74,0-3.4.13-5.1.21v0a.2.2,0,0,0-.13.08c-3.83.22-7.57.51-11.19,1v0s0,0-.08,0a161.08,161.08,0,0,0-55.54,17.06c-.3.12-.56.29-.86.42q-3.32,1.79-6.37,3.57c-.51.3-1,.64-1.54.94-1.53.93-3,1.87-4.5,2.85-.51.34-1.07.68-1.62,1.06-1.83,1.23-3.57,2.47-5.27,3.7a5.24,5.24,0,0,0-.56.43c-20.28,15-30,29.89-30.23,30.19a2.08,2.08,0,0,0-.3,1.32,2.28,2.28,0,0,0,.34,1.28,2.16,2.16,0,0,0,2.12.93l10.08-1.7a312.82,312.82,0,0,0-34,45.72,23.58,23.58,0,0,1,1.62-1.91A22.27,22.27,0,0,1,392.1,98c.51-.73,1-1.41,1.44-2.09h16.08c-.34.56-.72,1.11-1,1.66a21.27,21.27,0,0,1,8.76-1.91h3.44l.77.25h13.57c-.6,1.28-1.24,2.55-1.83,3.87l1.53.51.21.64a22.41,22.41,0,0,1,4.55-4.46c.09-.17.17-.39.26-.56h.55a21.52,21.52,0,0,1,12-3.7,23,23,0,0,1,12.63,3.7h4.59c-.38,1-.72,2-1.06,3a22.31,22.31,0,0,1,3.1,4.25c.89-2.38,1.79-4.8,2.72-7.23h3.11a23.37,23.37,0,0,1,3.4-4.25h-4.89c2.25-5.74,4.63-11.4,7.06-17h11.74c-.77,2.85-1.58,5.74-2.34,8.63a18.92,18.92,0,0,1,4.63-1.1c.68-2.51,1.41-5,2.13-7.53H512c-.38,3.4-.77,6.81-1.11,10.21a20.93,20.93,0,0,1,4,2.8c.47-4.38.89-8.71,1.4-13h12.25c0,4.51,0,9.1-.09,13.65a22.25,22.25,0,0,1,2.26.39h2c0-4.94,0-9.62,0-14h12.59c1,5.57,2,11.23,2.89,17h-2.76c.59.26,1.23.51,1.83.81l.42-.26a25.09,25.09,0,0,1,4.38-1.87c-.85-5.27-1.74-10.46-2.64-15.65h10.93c1.49,5,2.94,10,4.34,15.1a20.08,20.08,0,0,1,4.72,1.61c-1.44-5.61-3-11.22-4.63-16.71h19c2.17,5.44,4.29,11.1,6.21,17H570a24.11,24.11,0,0,1,5.78,4.25h15.65a1.15,1.15,0,0,1,.09.34,47.2,47.2,0,0,1,9.61-4.59h-6.6c-1.87-5.83-3.87-11.53-6-17h14.59c2.29,4.81,4.55,9.87,6.67,15.1h.05a23.33,23.33,0,0,1,4.16-.85c-1.91-4.94-4-9.66-6.16-14.25h14.8a177.55,177.55,0,0,1,8,15.91c.55-.09,1.11-.17,1.62-.22.85-.25,1.7-.51,2.59-.68-2.29-5.23-4.8-10.25-7.4-15h14.63c2.94,4.38,5.79,8.89,8.38,13.53a18,18,0,0,1,4,.51h.64c-2.64-4.81-5.49-9.49-8.47-14h17.23c4.29,5.44,8.42,11.1,12.25,17h-6.85a23,23,0,0,1,7,4.25h2.51c1.53,2.43,3,4.89,4.34,7.4l1.36-1.61,1.87-.77c-.93-1.7-1.87-3.36-2.89-5h15.52c5.19-1.83,8.55-2.46,15.78-3.31l2.77-.39a17.84,17.84,0,0,1,4-.55h-2.76q-6.88-8.61-14.42-17H710c5.32,5.57,10.51,11.27,15.57,17h-1.15l.81,0,2.46.3h7.15l2.42,2a27.06,27.06,0,0,1,5.19,1.91h4.38c.81.81,1.57,1.66,2.34,2.47.55-.3,1.15-.6,1.74-.85A16.07,16.07,0,0,1,753,96.07a1.09,1.09,0,0,1-.13-.17h.38a24.45,24.45,0,0,1,13.06-4.12,20.52,20.52,0,0,1,2.34.13c.12-.09.29-.18.42-.26h-3.36c-6.34-5.7-12.84-11.4-19.35-17h8q9.49,7.47,18.58,14.89A25.82,25.82,0,0,1,777.75,88c-5.49-4.47-11-8.93-16.5-13.27h8.55q8.87,6.31,17.43,12.59h.6a20.86,20.86,0,0,1,2.3.13,23.1,23.1,0,0,1,4.46-.05q-8.67-6.43-17.44-12.67H790.3l5,3.23a2,2,0,0,0,1.7,1c1.41.17,8,3.74,20.59,12.76h-6.68c.08,0,.21.08.3.13a22,22,0,0,1,8.42,4.12h3.78c9.66,7.11,19.91,15.19,29.39,23.18h-15.1l.05.13a31.31,31.31,0,0,1,2.21,8.84c4.17,3.45,8,6.81,11.52,10H840.39c-.08,1.23-.21,2.63-.46,4.25H856c6.3,6,10.89,11.1,13.27,15H849.2c-1.7-3.61-5-8.08-9.53-13.22l-.89,5.23a54.85,54.85,0,0,1,5.78,8h-7.74a10.61,10.61,0,0,1-.34,1.07l-.76,2.55-.43.63h11a8.44,8.44,0,0,1,.17,1c.56,6.47.9,13.06,1.11,19.69h-19c0-2,0-4,0-6a10.34,10.34,0,0,1-.59.93,25.7,25.7,0,0,1-2.9,6.68c-.42.72-.85,1.62-1.36,2.64h.56c0,4,0,8.08-.13,12.16a19.78,19.78,0,0,1,4.25,1q.06-6.45.13-13.14h19.14c.13,6,.17,11.91,0,17.86H836.52a21.24,21.24,0,0,1,3.75,4.25h7.35c-.17,6.55-.46,13.1-.93,19.61h-2a28.58,28.58,0,0,1-.94,4.25h2.6c-.64,8.12-1.45,16.16-2.51,24h-17l.13-3.19-.77.43-2.68,2.08a7.06,7.06,0,0,1-.93.64c0,.08,0,.08-.05,0a21.1,21.1,0,0,1-6.55,3.27c-.63.34-1.27.64-2,1h8.33c-.3,5.15-.59,10.25-.93,15.23H802.12c-.17-3.11-.34-6.25-.55-9.49-.47.3-1,.6-1.71,1l-.72.43c-.51.3-1.06.6-1.66.89q.19,3.64.39,7.15H783.15L783,275l-4.25.18c0,.25,0,.46.09.72H765.12c-.09-.51-.21-1-.3-1.49a19,19,0,0,1-3.23-1.23,9.46,9.46,0,0,1-1.23.46c.12.77.29,1.54.42,2.26H745.6c-.21-.77-.38-1.49-.6-2.26a22.59,22.59,0,0,1-5-2.63c.43,1.66.85,3.27,1.28,4.89H724.84c-.59-1.45-1.14-2.89-1.7-4.38l-3.44,1.78c0,.05,0,.05,0,.09.29.85.59,1.66.93,2.51h-2.51a22.67,22.67,0,0,1-3.87,4.25h8.08c2.94,7.15,6.08,13.78,9.36,20h-14.8c-3.36-5-6.64-10.25-9.74-15.82a18.7,18.7,0,0,1-4,1c2.85,5.19,5.87,10.08,9,14.8H696.86c-5-6.55-9.57-13.18-13.82-19.69,0,0-.09,0-.09,0-.47-.43-.89-.81-1.27-1.23a23.72,23.72,0,0,1-5.53-3.75,15.54,15.54,0,0,1-1.58.13c.73,1.19,1.45,2.38,2.22,3.57,5.44,8.64,11.18,16.89,16.92,24.41h0c4.9,6.38,9.91,12.42,14.93,17.87a195,195,0,0,0,20.08,19.13c22.2,18.25,45.16,27.48,68.26,27.48,18.54,0,36-9.32,51.75-27.73a148.53,148.53,0,0,0,13.83-19.18c3.35-5.53,6.59-11.57,9.65-17.95a255.49,255.49,0,0,0,10.12-24.45c2.26-6.3,4.34-12.89,6.25-19.65.43-1.49.81-3.06,1.19-4.59.26-.9.47-1.83.73-2.77,1-4,2-8,2.89-12,.34-1.62.72-3.28,1-4.89.3-1.41.64-2.81.93-4.21,1.07-5.7,2-11.44,2.81-17.14l.51-3.7c.13-1,.3-2.09.43-3.15s.21-2,.34-3.1c.13-1.28.25-2.56.38-3.79.21-1.91.38-3.78.55-5.7.26-3,.47-6,.64-9,0-.22,0-.43,0-.64.3-5.49.43-10.93.43-16.16V168A7,7,0,0,0,901.34,166.8ZM528.49,50.69h-9.32c.85-6.37,1.7-12.37,2.56-17.82h6.5C528.36,38.36,528.44,44.36,528.49,50.69ZM518.11,28.62h-3.87c1.32-3.61,2.59-6.89,3.74-9.82h1.87C519.3,21.65,518.71,24.88,518.11,28.62Zm8.72-21.56c.25,1.87.51,4.42.72,7.48H525A75.36,75.36,0,0,1,526.83,7.06ZM524.11,18.8h3.65c.17,3,.3,6.25.39,9.82h-5.74C523,25,523.55,21.73,524.11,18.8Zm-3.41-4.26h-.93c.68-1.65,1.36-3.23,2-4.55C521.43,11.36,521.09,12.84,520.7,14.54Zm-1.27-9.69a1.68,1.68,0,0,1,.42,0A98.63,98.63,0,0,0,515,14.54h-2C516,9.4,518.28,6,519.43,4.85ZM457.85,55c-3.11,4.85-6.21,10-9.32,15.48H432.67c3.95-5.36,7.95-10.55,11.87-15.48Zm-9.91-4.26c5.23-6.54,10.2-12.54,14.67-17.82h10.25c-3.87,5.32-8,11.28-12.29,17.82ZM462.87,55h7.27c-1.75,3-3.36,5.87-4.77,8.42-1.19,2.17-2.5,4.55-3.82,7.06h-8.17C456.57,64.94,459.76,59.8,462.87,55Zm2.76-4.26c4.38-6.59,8.59-12.58,12.46-17.82h5.36c-3.74,6-7.49,12.08-10.8,17.82Zm20.54-22.07h-4.85c2.81-3.7,5.4-7,7.74-9.82h3.58C490.55,21.86,488.34,25.18,486.17,28.62Zm11.7-9.82h7.31c-1.7,3-3.53,6.29-5.4,9.82h-8.51C493.66,25,495.83,21.69,497.87,18.8Zm-9.32,14.07h9c-2.85,5.49-5.83,11.49-8.8,17.82h-11.1C481.45,44.27,485.15,38.28,488.55,32.87Zm14.38,0h5C506,38.36,504,44.36,502,50.69H494C497.1,44.32,500.12,38.28,502.93,32.87Zm2.25-4.25q2.88-5.41,5.36-9.82h2.68c-1.23,3-2.47,6.29-3.79,9.82ZM508,5.83c1.91-.22,3.87-.39,5.87-.56-1.79,2.39-3.87,5.53-6.17,9.27h-6.85C504.2,9.91,506.71,6.89,508,5.83Zm-8.81,1.31c.77-.17,1.58-.25,2.39-.38-1.79,2.13-3.79,4.77-6,7.78h-3C495.83,10.8,498.08,8.29,499.18,7.14Zm-17.47,4.05c3.36-1,6.84-1.83,10.46-2.64q-2.18,2.49-5.11,6h-8.42C480.05,13,481.11,11.87,481.71,11.19Zm1.87,7.61c-2.3,2.89-4.85,6.16-7.57,9.82h-9.74c3.27-3.83,6.16-7.1,8.55-9.82Zm-10-5a9.31,9.31,0,0,1-.64.72h-1.36C472.18,14.33,472.86,14.08,473.54,13.82Zm-12.29,5h7.82c-2.46,2.85-5.35,6.16-8.5,9.82H443.09A153.59,153.59,0,0,1,461.25,18.8ZM436.79,32.87H457c-4.55,5.36-9.48,11.36-14.63,17.82H416A146.05,146.05,0,0,1,436.79,32.87Zm-15.6,28.84a2,2,0,0,0,.55-1.36,2.2,2.2,0,0,0-.21-1.36,2.14,2.14,0,0,0-2.21-1.11l-11.19,1.87c1.06-1.36,2.38-3,4-4.8H439c-3.87,4.93-7.82,10.12-11.73,15.48H413.32C416.13,67.15,418.68,64.35,421.19,61.71Zm-8.81,29.94H396.56c4.26-5.91,8.68-11.61,13.14-17h14.42C420.08,80.21,416.17,85.91,412.38,91.65Zm24.8,0H417.61c3.87-5.74,7.83-11.44,11.91-17h16.59Q441.58,82.78,437.18,91.65Zm13.61,0h-8.85q4.47-8.87,9-17h8.33C456.53,79.91,453.68,85.61,450.79,91.65Zm20.5,0H455.64q4.14-8.61,8.63-17h13.82C475.75,80.25,473.45,86,471.29,91.65Zm8.59-21.22H466.52c2.89-5.32,5.79-10.51,8.68-15.48h11.57C484.47,60,482.13,65.11,479.88,70.43Zm16.16,0H485c2.34-5.32,4.68-10.51,7.06-15.48h8.59C499.1,60,497.53,65.11,496,70.43Zm17.31-6.93c-.3,2.29-.56,4.59-.85,6.93H500.55c1.53-5.32,3.14-10.51,4.72-15.48h9.1C514,57.67,513.69,60.48,513.35,63.5Zm1.57-12.81h-8.29c2.08-6.37,4.12-12.37,6.08-17.82h4.72C516.66,38,515.81,43.89,514.92,50.69Zm1.83,19.74c.64-5.32,1.23-10.51,1.87-15.48h9.87c0,5,0,10.2,0,15.48ZM774.56,50.69h-13.1l-22-14.46A375.13,375.13,0,0,1,774.56,50.69Zm-48-17.82,27.18,17.82H743.05c-9.74-6.71-18.63-12.75-26.16-17.82ZM632,28.62h-6c-4.09-3.57-8-6.89-11.74-9.82h4.63C622.86,21.65,627.28,24.92,632,28.62Zm-6.5-9.82h10.76c4.08,2.8,8.54,6.12,13.22,9.82H638.34C633.79,25,629.49,21.73,625.5,18.8ZM619,28.62h-9.69c-3.53-3.57-7-6.85-10.25-9.82h7.69C610.53,21.65,614.65,24.92,619,28.62Zm-15.39,0h-10.3c-3.44-3.61-6.8-6.89-10-9.82h9.57C596.24,21.69,599.85,25,603.64,28.62Zm-16.21,0h-8q-4.22-5.35-8.17-9.82h5.79C580.29,21.65,583.78,24.92,587.43,28.62Zm-13.52,0h-8.08q-3.26-5.35-6.38-9.82h6Q569.43,23.14,573.91,28.62Zm-13.53,0h-11.1q-2.1-5.3-4.08-9.82h8.63C555.88,21.69,558.09,25,560.38,28.62Zm2.6,4.25c3.23,5.32,6.59,11.32,9.91,17.82H557.32c-2.12-6.33-4.29-12.33-6.38-17.82Zm5.4,0h8.85c4.08,5.28,8.29,11.23,12.5,17.82H578C574.8,44.23,571.57,38.28,568.38,32.87Zm14.33,0h8.85a227.57,227.57,0,0,1,15.22,17.82h-12C590.79,44.19,586.71,38.23,582.71,32.87Zm14.63,0h10.59c5.23,5.32,10.72,11.28,16.16,17.82H612A211.27,211.27,0,0,0,597.34,32.87Zm16.16,0H624c6,5.32,12.41,11.28,18.79,17.82H629.15C623.92,44.23,618.65,38.28,613.5,32.87Zm17.23,0h6.63C644,38.19,651,44.19,658.16,50.69h-9.4C642.72,44.23,636.64,38.28,630.73,32.87Zm12.88,0h11.1c6.43,5.32,13.23,11.32,20.08,17.82H664.11C657.14,44.23,650.21,38.28,643.61,32.87ZM679.25,55c5.11,4.93,10.21,10.12,15.23,15.48H684c-5-5.36-10.17-10.55-15.36-15.48Zm1.87-4.26c-6.63-6.42-13.27-12.41-19.69-17.82h5.15c6.17,5.28,12.76,11.28,19.56,17.82Zm-8.25-17.82h6.77C685.8,38.06,692.69,44.1,700,50.69h-7.87C685.5,44.27,679,38.28,672.87,32.87Zm13.66,0h3c7.11,5.75,14.42,11.7,21.78,17.82h-4.64C699.75,44.32,692.9,38.32,686.53,32.87ZM716.42,55c6.13,5.1,12.29,10.29,18.38,15.48h-7.15c-5.32-5.19-10.8-10.38-16.33-15.48ZM696.26,32.87h3.28c7.74,5.7,15.73,11.7,23.77,17.82H718C710.09,44.15,702.73,38.11,696.26,32.87Zm10.42,0h2.6c8.55,5.7,17.35,11.66,26.28,17.82h-5.23C721.65,44.06,713.62,38,706.68,32.87ZM716,28.62h-5.41c-1.4-.93-2.72-1.83-3.95-2.68C709.79,26.84,712.89,27.73,716,28.62Zm-22.08-5.95c3,1.91,6,3.91,9,5.95h-2c-3.23-2.38-6.12-4.51-8.63-6.33C692.86,22.41,693.37,22.54,693.88,22.67Zm-12.12-2.85,12,8.8H691c-4.5-3.66-8.46-6.8-11.61-9.31Zm-9.78-1c4,3.19,8.08,6.46,12.29,9.82h-2.76c-4.47-3.7-8.64-7.06-12.25-9.82Zm-9.91,0c3.32,2.46,7.57,5.74,12.46,9.82H667.9c-4.3-3.66-8.38-7-12.17-9.82ZM655,14.54h-5.19c-.64-.38-1.19-.76-1.78-1.14Zm-6.08,4.26c3.78,2.68,8,6,12.63,9.82h-5.23c-4.42-3.61-8.72-6.89-12.76-9.82ZM636.3,11.65a33.47,33.47,0,0,1,6.08,2.89h-4.89c-2-1.31-3.87-2.46-5.7-3.52ZM618.73,9.4a50.6,50.6,0,0,1,10.89,5.14H619.54c-3.36-2.33-6.38-4.38-9-6Q614.65,8.89,618.73,9.4ZM601.08,7.61c2.09.81,6.17,3.23,11.7,6.93h-4c-3.83-2.84-7.36-5.27-10.42-7.18ZM587.82,6.55c2.33.89,7,3.66,13.14,8h-6.77c-4-3.35-7.69-6.16-10.93-8.33C584.8,6.29,586.28,6.42,587.82,6.55ZM574,5.66c2.64.85,7.57,4,13.78,8.88h-9.1c-4.42-3.87-8.29-6.93-11.27-9.18C569.57,5.44,571.78,5.57,574,5.66Zm-14.29-.6a154,154,0,0,1,12.46,9.48h-4.76A122.49,122.49,0,0,0,557.24,5C558.05,5,558.85,5,559.66,5.06Zm-9.74-.3c2,1,6.17,4.34,11.53,9.78h-5.06a88.93,88.93,0,0,0-8.34-9.82C548.69,4.76,549.33,4.76,549.92,4.76Zm-8.5-.17c1.74.94,5.06,4.43,9.27,10h-7.45a78.76,78.76,0,0,0-5.52-9.95Zm3.19,24h-4.94c-.89-3.53-1.83-6.8-2.72-9.82h3.57Q542.5,23.2,544.61,28.62Zm-12-24.07c1.36,1.06,3.45,4.59,6,10h-3a68,68,0,0,0-4.08-10ZM532,18.8h.81q1.28,4.39,2.68,9.82h-3.1C532.27,25,532.14,21.73,532,18.8Zm.52,14.07h4c1.36,5.41,2.72,11.45,4.08,17.82h-7.87C532.66,44.06,532.61,38.11,532.49,32.87Zm.29,37.56c0-5.53,0-10.68,0-15.48h8.76c1,5,2,10.16,3,15.48Zm12-19.74c-1.32-6.33-2.68-12.33-4-17.82h5.48c2.09,5.41,4.26,11.45,6.43,17.82Zm3.87,19.74c-1-5.28-2-10.46-3-15.48h8.42c1.66,5,3.32,10.16,5,15.48Zm14.88,0C562,65.11,560.34,60,558.73,55H575c2.39,4.89,4.77,10,7.06,15.48Zm23.27,0Q583.53,62.33,580,55h12.34c2.93,4.85,5.82,10,8.63,15.48Zm19,0C603.13,65,600.28,59.84,597.38,55h12.55c3.49,4.8,6.93,10,10.21,15.48Zm19.22,0c-3.15-5.49-6.51-10.63-9.91-15.48h12.5c4,4.89,7.83,10.08,11.61,15.48Zm18.8,0C640.21,65,636.38,59.88,632.51,55h14.38C651.48,59.84,656,65,660.45,70.43ZM652.67,55h10.08C668,59.84,673.26,65,678.36,70.43H665.77C661.56,65,657.14,59.88,652.67,55Zm28.16,36.7c-3.7-5.83-7.66-11.48-11.78-17h13.26q7.61,8.23,14.51,17Zm32.4,0h-11.1c-4.46-5.83-9.23-11.48-14.2-17h10.5C703.54,80.21,708.51,85.91,713.23,91.65ZM700.47,70.43c-4.93-5.32-10-10.51-15-15.48h5.11c5.06,4.93,10.24,10.12,15.35,15.48Zm-4-15.48h8.16c5.41,4.93,11,10.12,16.59,15.48H711.7C706.64,65.11,701.58,59.92,696.52,55Zm34.58,36.7q-7.47-8.55-15.4-17h9.95q8.69,8.35,17.06,17Zm28.11,0H748.79c-5.91-6.17-11.66-12-16.76-17h7.7C746.36,80.38,752.91,86,759.21,91.65ZM741.39,70.43C735.14,65.07,729,59.88,723.06,55h5.82c6.68,5.1,13.4,10.29,20,15.48Zm14.46,0C749,65.07,742.32,59.88,735.9,55h5.83c7.36,5.1,14.76,10.25,22.11,15.48Zm15.35,0c-7.53-5.4-14.93-10.59-22-15.48h11l23.64,15.48Zm20.37,0L768,55h15.27a241.73,241.73,0,0,1,26.53,15.48Zm9.36,266.4h-8.21c-.85-4.42-1.79-9.31-2.72-14.63h10.46C800.67,327.47,800.84,332.36,800.93,336.83ZM800.25,318h-11c-.73-4.26-1.49-8.76-2.22-13.48h12.46C799.78,309.14,800,313.65,800.25,318Zm-45.42-13.48h12.42c1.23,4.72,2.5,9.18,3.78,13.48h-10.5C758.57,313.74,756.66,309.27,754.83,304.47Zm10.67,32.36h-4.21a178.11,178.11,0,0,1-11.61-14.63h8.08C760.31,327.56,762.91,332.45,765.5,336.83ZM755.8,318h-9c-2.81-4.21-5.58-8.68-8.34-13.48h11.87C752.06,309.23,753.89,313.74,755.8,318Zm0,18.88h-7.14A197.82,197.82,0,0,1,734,322.2h10.76C748.4,327.56,752.1,332.41,755.76,336.83Zm3.66,4.25a137.75,137.75,0,0,0,14.2,14,140.11,140.11,0,0,1-20.07-14Zm5.74,0h2.94c2,3.23,4.08,6.13,6.08,8.76C771.29,347.29,768.27,344.4,765.16,341.08Zm-2.59-18.88h9.74c1.7,5.27,3.36,10.16,5.06,14.63h-6.72C768,332.53,765.25,327.64,762.57,322.2Zm14.29,0h8.8c.94,5.32,1.87,10.21,2.72,14.63h-6.46C780.26,332.45,778.56,327.56,776.86,322.2Zm21.26-42c.17,3.15.38,6.3.55,9.31.22,3.66.43,7.19.6,10.72H786.43c-.94-6.29-1.88-13-2.77-20ZM784.94,318h-9.4q-2-6.39-3.83-13.48h11.06Q783.85,311.55,784.94,318Zm-5.53-37.77c.85,7.06,1.78,13.74,2.72,20H770.6q-2.42-9.43-4.63-20Zm-17.78,0c1.4,7,2.94,13.7,4.51,20H753.21c-2.25-6.16-4.42-12.84-6.46-20Zm-35.09,0h15.87c2,7.15,4.08,13.78,6.29,20H736.11C732.75,294,729.56,287.37,726.54,280.18Zm7.36,24.29c2.6,4.76,5.28,9.22,8,13.48H730.33c-3.57-4.21-7.1-8.72-10.5-13.48Zm-33.72,0h14.71c3.36,4.76,6.76,9.22,10.25,13.48H711.62C707.62,313.57,703.83,309.06,700.18,304.47Zm15.48,17.73h13.1a200.36,200.36,0,0,0,14.12,14.63H731.39A182.14,182.14,0,0,1,715.66,322.2Zm21.05,18.88H747.6a149.6,149.6,0,0,0,27.81,19.57C761.59,357,748.62,350.06,736.71,341.08Zm36.66,0H779a127.08,127.08,0,0,0,7.69,16.29A95.2,95.2,0,0,1,773.37,341.08Zm10.21,0h5.65c1.79,8.76,3.28,15.4,4.34,19.65C790.85,357.2,787.36,350.57,783.58,341.08Zm14.8,21.44c-.94-3.66-2.68-10.93-4.81-21.44H801C801,352,800.29,359.58,798.38,362.52ZM857.45,138c-4.81-4.55-10.38-9.49-16.59-14.68h16.89c6,5.15,11.44,10.08,16.29,14.68Zm4.34,4.25h16.58a145.8,145.8,0,0,1,13.36,15H873.87C871.74,153.23,867.57,148.13,861.79,142.26ZM852,204.31c.09-5.95.09-11.91,0-17.86H875c.26,5.65.26,11.65,0,17.86Zm22.76,4.25c-.43,6.34-1.19,12.93-2.17,19.61H850.9c.47-6.51.77-13.06.94-19.61Zm-3.66-47a5.92,5.92,0,0,1,.13.81,2.64,2.64,0,0,0,.08.6,92.68,92.68,0,0,1,3.45,19.26H851.79c-.21-6.67-.59-13.35-1.15-19.86a5.87,5.87,0,0,0-.12-.81Zm-20.46,70.9h21.31c-1.28,7.91-2.89,16-4.85,24h-19C849.11,248.58,849.92,240.54,850.6,232.42Zm-3.1,28.28H866c-1.27,5.11-2.72,10.21-4.29,15.23H845.07C845.92,271,846.73,265.85,847.5,260.7Zm-3.23,19.48h16c-2.21,6.85-4.64,13.57-7.27,20H839.88Q842.31,290.58,844.27,280.18ZM834.87,318c1.36-4.34,2.68-8.81,4-13.48H851.2c-2,4.63-4.09,9.14-6.3,13.48Zm7.82,4.25a167.67,167.67,0,0,1-8.89,14.63h-6.12c2-4.51,4-9.4,5.74-14.63Zm-16.07-61.5h16.67c-.77,5.15-1.58,10.25-2.47,15.23h-15.1C826.06,271.08,826.36,266,826.62,260.7Zm-1.2,19.48h14.63c-1.31,6.93-2.8,13.65-4.42,20H823.72C824.36,294,824.91,287.33,825.42,280.18Zm-2.16,24.29h11.27c-1.28,4.67-2.64,9.18-4,13.48h-9C822.15,313.74,822.7,309.23,823.26,304.47ZM829,322.2c-1.87,5.27-3.87,10.16-5.95,14.63H818c1.07-4.38,2-9.27,2.85-14.63ZM804.5,318c-.21-4.21-.42-8.68-.72-13.48h15.14c-.51,4.67-1.11,9.18-1.75,13.48Zm12,4.25c-.9,5.27-1.88,10.16-2.94,14.63h-8.42c-.08-4.34-.25-9.19-.47-14.63Zm-13.61-33c-.22-2.93-.39-6-.56-9.06h18.8q-.76,10.4-1.78,20H803.56C803.35,296.68,803.14,293.07,802.93,289.24Zm2.29,51.84h7.32c-2.43,8.81-5.32,15.44-8.76,19.1C804.84,355.93,805.27,349.67,805.22,341.08Zm11.7,0H821a74.9,74.9,0,0,1-8.8,13.53A78.58,78.58,0,0,0,816.92,341.08Zm8.76,0h5a75.46,75.46,0,0,1-13.78,14.46A83.32,83.32,0,0,0,825.68,341.08Zm-4,16.08A86.69,86.69,0,0,0,834.65,343c.47-.59.9-1.23,1.32-1.87h6.21A77.67,77.67,0,0,1,821.72,357.16ZM846,336.83h-7.06c3-4.51,5.82-9.44,8.54-14.63h9.23A146.8,146.8,0,0,1,846,336.83ZM859.32,318h-9.7c2.13-4.34,4.21-8.85,6.13-13.48h10.89C864.34,309.14,861.87,313.65,859.32,318Zm9.36-17.74H857.49c2.6-6.46,5-13.18,7.19-20H877C874.46,287.11,871.7,293.79,868.68,300.21Zm9.86-24.28H866c1.53-5,3-10.12,4.25-15.23h13.18C882,265.85,880.29,271,878.54,275.93Zm6.13-19.48H871.31c1.92-8,3.53-16.12,4.81-24h14.33C888.84,240.5,886.88,248.54,884.67,256.45Zm6.59-28.28h-14.5c1-6.68,1.7-13.27,2.12-19.61h15.57C893.6,215.07,892.54,221.62,891.26,228.17ZM895,204.31H879.1a166.82,166.82,0,0,0,.08-17.86h17.44Q896.11,195.26,895,204.31Zm2.26-35.64c0,3.57-.13,7.27-.26,11,0,.85-.08,1.7-.13,2.55H878.93a97.79,97.79,0,0,0-3.49-20.2c0-.17-.09-.34-.09-.47h19.27c2.17,3.53,2.64,5.58,2.64,6.72Z"/><path d="M191.7,255.22a34.58,34.58,0,0,1-1.11-5c-.89,2-1.78,4.12-2.76,6.25H182.6c-.26.34-.55.68-.85,1l-.81.94c-.47.55-.94,1.06-1.36,1.57v.72h6.29c-2.34,4.89-4.93,10-7.78,15.23H154.61c.47-.94.9-1.83,1.32-2.77-.21,0-.38,0-.55.09l-1.66.38h-2.89c-.34.77-.72,1.53-1.11,2.3H134.88c.72-1.79,1.4-3.62,2.09-5.45l-1.07-.55a27,27,0,0,1-2.46-1.44c-.94,2.5-1.92,5-2.9,7.44H114.17c1.66-4.94,3.23-10,4.76-15.23h6.43a24.59,24.59,0,0,1-3-4.25h-2.3c.26-1,.55-2,.81-3.06,0-.09-.09-.17-.13-.26l-.51-.55-1.49-4.93c-.12-.43-.25-.85-.42-1.32-.81,3.4-1.7,6.8-2.6,10.12h-2.93a36.58,36.58,0,0,1-1.45,4.25h3.19c-1.53,5.23-3.1,10.29-4.8,15.23H103.5a25.55,25.55,0,0,1-4.26,4.25h9.06c-2.55,7-5.19,13.7-8,20H87.5c1.49-5.19,2.94-10.55,4.26-16a23.68,23.68,0,0,1-4.6,1c-1.27,5.15-2.63,10.12-4,15H72.87c.68-5.53,1.37-11.31,2-17.43a25.21,25.21,0,0,1-4.08-2.56c-.73,7.06-1.45,13.7-2.21,20H51.23q-.19-9.18-.13-20H70.71a23.71,23.71,0,0,1-4.3-4.25H51.14c.09-4.85.17-9.91.34-15.23h9.06c-.17-1-.25-1.87-.34-2.72l-.13-1.53H51.61c.25-7.53.64-15.52,1.11-24h5a25.12,25.12,0,0,1-1-4.25H52.93c.38-6.25.81-12.8,1.27-19.61h7.36v-.3a21,21,0,0,1,.3-3.95H54.54c.43-5.74.9-11.74,1.41-17.86h7.19c0-.68.08-1.45.17-2.43l.08-1.83H56.33c.55-6.5,1.19-13.14,1.87-20.07a2.28,2.28,0,0,1,.09-.6h7v-.17c.09-1.14.17-2.55.34-4.08H58.84a115.28,115.28,0,0,1,3.74-15h4.81v-.13l.17-2.12c0-.13-.09-.22-.13-.34-.3-.56-.55-1.07-.81-1.66H64c.38-1,.76-2,1.15-3.11a34.16,34.16,0,0,1-2.22-6C61.69,132,60.5,135,59.48,138H42.38c1.91-4.77,4.21-9.7,6.81-14.68H62c0-.76-.09-1.57-.09-2.34s0-1.27.05-1.91H51.44a222.81,222.81,0,0,1,15-23.18h5.83l.25-.25c.17-.26.34-.51.56-.81a22.32,22.32,0,0,1,2.51-3.19h-6c4.38-5.74,9.06-11.44,14-17H95.07c-2.55,3.36-5,6.72-7.4,10.12a22.21,22.21,0,0,1,4.94-.59h.59c2.26-3.19,4.6-6.38,7.06-9.53h16.55c-2.9,4.17-5.66,8.42-8.34,12.63l2.38,4.21c3.53-5.65,7.32-11.27,11.19-16.84h10.08c-2.81,5.61-5.49,11.31-8,17H110.9l.17.3s.42.38,1.1.89l.51.43c.51.38,1.11.85,1.79,1.44L116,95.9h6.25c-.47,1.11-1,2.26-1.4,3.36l3.14,3.92c1-2.43,2-4.85,3.07-7.28h17.65c-.43,1.19-.85,2.43-1.24,3.62a22.87,22.87,0,0,1,5.19-2.26c.13-.46.3-.89.47-1.36h12.16c-.13.51-.21,1.07-.34,1.58a10.71,10.71,0,0,1,1.32.42,19.21,19.21,0,0,1,3.06-1.19c0-.25.13-.55.17-.81h17.31c-.08.73-.17,1.45-.25,2.17l3.14,1a26.5,26.5,0,0,1,1.36-2.85c0-.12.05-.21.05-.34h.17a19.79,19.79,0,0,1,3-4.25h-2.63c.76-5.78,1.57-11.44,2.38-17H200l.21,10.76c.56-.17,1.11-.25,1.66-.38a23.08,23.08,0,0,1,2.6-.55l-.22-9.83h11.49c.8,3.83,1.57,7.7,2.29,11.65a23.93,23.93,0,0,1,4.81,2.85c-.85-4.89-1.79-9.74-2.77-14.5h10.47c1.95,5.57,3.87,11.27,5.7,17H225.77a27.83,27.83,0,0,1,3.74,4.25h8c1.1,3.49,2.12,6.93,3.14,10.38a18.85,18.85,0,0,1,4.13-.55c-.94-3.24-2-6.55-3-9.83h4v-.25l21.39-.17a20,20,0,0,1,4.21.42h7.7c.72,1.36,1.4,2.72,2.08,4.13a7.93,7.93,0,0,1,.89-.85l1.28-1.45,1-.76c-.17-.34-.34-.73-.51-1.07h2.08A47.91,47.91,0,0,1,295,91.65H281.65q-4.53-8.67-9.65-17h16c3.95,5.06,7.69,10.34,11.18,15.78a23.61,23.61,0,0,1,4.13-.64Q298.38,82,292.83,74.68h15.7a179.9,179.9,0,0,1,12.63,15.4,22.41,22.41,0,0,1,7.23,3.44l1.36.89C320.61,81.19,310.4,69,299.34,59.63h43.21a2.08,2.08,0,0,0,2-2.51,2.13,2.13,0,0,0-.42-1.28c-.26-.25-11.66-13.35-34.28-26.79a4.06,4.06,0,0,0-.43-.26v-.17h-.29c-.34-.21-.69-.38-1-.59-1.87-1.11-3.82-2.17-5.82-3.24-.85-.46-1.75-.93-2.6-1.36-1.82-.93-3.7-1.87-5.65-2.8-.68-.34-1.32-.64-2-1-2.39-1.11-4.89-2.17-7.45-3.23-.42-.17-.85-.34-1.27-.56C261.66,7.06,234.19.26,200.93,0h-.6c-.34,0-.68,0-1,0-17.6,0-37.72,5.06-58.52,14.54h-.17v.13C89.33,38.15,34.34,88.8,4.53,158.29A56.32,56.32,0,0,0,1.17,172,11,11,0,0,1,1,173.22c-.08.77-.17,1.57-.25,2.38-.13,1.07-.22,2.13-.3,3.23a6.49,6.49,0,0,1-.09,1c-.08,1.45-.17,2.89-.21,4.43a6.26,6.26,0,0,0,0,.85v.25C-1,216.86,6,264.19,17,302.85c0,0,0,.08,0,.08,1.74,6.21,3.62,12.17,5.53,17.82,2.47,7.11,5,13.53,7.53,19.1,8.55,18.75,17.31,28.24,26,28.24,27.6,0,53.16-9.23,76-27.48a165.4,165.4,0,0,0,20.08-19.13,201.76,201.76,0,0,0,14.2-17.91h0a257.4,257.4,0,0,0,15.23-24.49c3.44-6.26,6.76-12.89,9.87-19.65.34-.73.68-1.49,1-2.21a1.68,1.68,0,0,1-.21-.47ZM204.12,70.43,203.82,55h7.7c1.1,5,2.21,10.16,3.32,15.48Zm10.8-19.74c-1.44-6.37-2.85-12.37-4.17-17.82h3.66c2.34,5.45,4.76,11.49,7.23,17.82Zm68.52,0h-11c-6.17-6.46-12.42-12.37-18.54-17.82h9C271.27,39.42,278.37,45.89,283.44,50.69ZM269.87,32.87h10a275.2,275.2,0,0,1,24.46,17.82H289.56C285.26,46.36,278.37,39.85,269.87,32.87Zm-3.06,17.82H255.75c-4.76-6.37-9.57-12.37-14.29-17.82h6C253.84,38.19,260.34,44.19,266.81,50.69Zm-2.64,19.74H249.84C247.29,65.15,244.69,60,242.05,55h11.36C257.07,59.88,260.68,65.07,264.17,70.43ZM237.76,28.62c-3.23-3.57-6.34-6.8-9.36-9.82h.81c4.17,2.89,8.55,6.16,13.1,9.82Zm12.46,22.07H239.84c-3.36-6.29-6.72-12.29-10-17.82h5.82C240.4,38.28,245.33,44.23,250.22,50.69Zm-15.35,0H226c-2.47-6.33-4.89-12.29-7.23-17.82h5.87C227.94,38.32,231.38,44.32,234.87,50.69Zm-15.7,19.74c-1.1-5.32-2.21-10.51-3.31-15.48h7.44c1.91,5,3.83,10.16,5.7,15.48ZM227.64,55h9.52c2.68,5,5.36,10.16,8,15.48H233.34C231.46,65.15,229.55,60,227.64,55Zm12.84,36.7c-1.83-5.7-3.7-11.36-5.66-17h12.42c2.77,5.61,5.49,11.27,8.08,17Zm36.36,0H259.66c-2.51-5.66-5.1-11.36-7.78-17h15C270.38,80.17,273.74,85.87,276.84,91.65Zm-7.52-21.22q-5.11-8-10.47-15.48h12.08c4.68,4.89,9.27,10,13.7,15.48Zm35.12,0H289.52C285.26,65,280.88,59.88,276.33,55h11.44c1.66,1.66,2.81,2.85,3.28,3.4a2.42,2.42,0,0,0,.64.85A114.41,114.41,0,0,1,304.44,70.43ZM293.9,55.12l-.17-.17h15.69s.13.08.17.17Zm22.11,0c0-.09-.13-.13-.17-.17h12.72s.13.08.17.17ZM337.15,55l.17.17h-2a.74.74,0,0,0-.21-.17ZM307.63,32.87a170.27,170.27,0,0,1,24.88,17.82h-2.46a240.49,240.49,0,0,0-25.18-17.82ZM323.2,50.69H311a274.19,274.19,0,0,0-23.22-17.82h8.8A244.92,244.92,0,0,1,323.2,50.69ZM300,28.62h-2.29c-5.32-3.06-11.1-6.12-17.27-9.06A192.08,192.08,0,0,1,300,28.62ZM268.3,18.8c7.4,3.06,14.33,6.42,20.71,9.82h-7.62c-5.18-3.32-10.76-6.63-16.67-9.82Zm-11.19-4.26h-.81c-.72-.34-1.44-.63-2.17-1C255.15,13.91,256.13,14.2,257.11,14.54ZM255,18.8c6.38,3.06,12.42,6.42,18.08,9.82h-8.55c-4.34-3.32-8.93-6.63-13.78-9.82Zm-9.44-4.26h-1.66c-1.23-.68-2.42-1.4-3.7-2.08C242,13.14,243.76,13.82,245.54,14.54Zm-3,4.26c5.11,3.06,10.08,6.42,14.72,9.82h-8.3q-6.37-5.35-12.37-9.82Zm-7.61-4.26h-4.25c-3.15-2.16-6.21-4.16-9.06-5.91A123.76,123.76,0,0,1,234.91,14.54ZM222.15,18.8c3.06,2.93,6.3,6.21,9.61,9.82h-4.55q-3.26-5.3-6.38-9.82Zm-6.63,0q3.12,4.39,6.5,9.82h-5q-2.31-5.3-4.43-9.82Zm-3.11-4.26H210.5c-1-2-2-4-2.89-5.65C209.09,10.42,210.67,12.33,212.41,14.54Zm-4.34,4.26c1.41,3,2.94,6.25,4.51,9.82h-2.85c-.89-3.53-1.7-6.85-2.46-9.82Zm2.51,31.89h-6.84l-.34-17.82h3C207.69,38.32,209.14,44.32,210.58,50.69Zm-5.23-22.07h-2l-.17-8.8C203.82,22.5,204.59,25.43,205.35,28.62ZM133.18,280.18h14.38q-5.43,10.27-11.74,20H123.91Q128.89,290.46,133.18,280.18ZM74.87,336.83c1.92-4.59,3.79-9.53,5.62-14.63h8.89c-3,5.27-6,10.16-9,14.63Zm2.51,4.25a137.43,137.43,0,0,1-10.8,13.19c2.21-4,4.34-8.42,6.46-13.19ZM94.1,322.2h12.2q-5.42,8-10.89,14.63H85.34C88.31,332.32,91.25,327.43,94.1,322.2Zm3.36,18.88h4.25a118.09,118.09,0,0,1-16.33,12.55A125.86,125.86,0,0,0,97.46,341.08Zm3.44-4.25c3.53-4.47,7-9.4,10.38-14.63h8.5a187.32,187.32,0,0,1-13.52,14.63ZM114,318c2.51-4.13,5-8.38,7.36-12.85a6.47,6.47,0,0,0,.34-.63H133c-3.19,4.72-6.46,9.18-9.82,13.48Zm-1.32-37.77h16.08q-4.53,10.53-9.49,20H104.81Q109,290.72,112.68,280.18Zm-9.74,24.29H117q-3.88,7.08-8,13.48H96.35C98.6,313.65,100.82,309.14,102.94,304.47Zm-16.71,0H98.39c-2.21,4.67-4.42,9.18-6.68,13.48H81.93C83.42,313.57,84.87,309.06,86.23,304.47Zm-13.87,0h9.53c-1.4,4.63-2.89,9.1-4.38,13.48H70.45Q71.41,311.56,72.36,304.47ZM69.81,322.2H76c-1.87,5.15-3.78,10-5.74,14.63H67.22C68.07,332.36,69,327.52,69.81,322.2ZM50.25,204.31H33.07c.29-5.74.64-11.7,1.1-17.86H51.69C51.18,192.57,50.67,198.57,50.25,204.31ZM47.19,260.7c-.13,5.32-.26,10.38-.34,15.23H33.32c-.34-4.81-.59-9.91-.81-15.23Zm-14.8-4.25c-.26-7.53-.34-15.48-.22-24H48.42c-.47,8.51-.81,16.5-1.06,24ZM46.8,280.18q-.06,10.85.13,20H35.83q-1.28-9.18-2.17-20ZM47,304.47c.12,4.8.29,9.31.55,13.48H38.89c-.85-4.17-1.66-8.64-2.42-13.48Zm.76,17.73c.38,5.44.77,10.33,1.24,14.63H43.83c-1.36-4.25-2.72-9.1-4-14.63Zm.9-94H32.26c.08-6.25.3-12.76.59-19.61H50C49.44,215.37,49,221.92,48.68,228.17ZM54,161.7c-.68,7.1-1.32,13.86-1.87,20.49H34.47c.47-6.5,1-13.14,1.7-20.11a2.25,2.25,0,0,1,.09-.56H54S54,161.65,54,161.7Zm4.17-19.44a107.85,107.85,0,0,0-3.58,15H36.81a95.39,95.39,0,0,1,4-15ZM98.35,70.43H87.5c4.9-5.32,10-10.55,15.36-15.48h8.59C106.94,59.92,102.52,65.11,98.35,70.43Zm64.43-37.56h8.93c-3,5.53-6,11.49-8.84,17.82H150.62C154.57,44.32,158.66,38.32,162.78,32.87Zm-2.59-4.25c.42-.47.89-.85,1.36-1.32-.34.47-.68.9-1,1.32Zm19.56,4.25c-2.47,6.43-4.64,12.76-6.25,17.82h-6.08c2.93-6.37,5.91-12.37,8.84-17.82Zm-1.15-4.25c2.09-3.61,4.08-6.89,6-9.82h1c-1.44,3.15-2.89,6.46-4.25,9.82ZM165.5,55h6.64c-.34,1-.6,1.91-.85,2.68-1.32,4.25-2.56,8.5-3.7,12.8h-8.72C161,65.11,163.25,60,165.5,55ZM154.32,70.43h-15c2.8-5.32,5.7-10.51,8.72-15.48h12.84C158.66,60,156.49,65.15,154.32,70.43Zm-8.93-19.74h-5.23c5.23-6.37,10.54-12.37,15.82-17.82h1.31C152.91,38.83,148.87,45,145.39,50.69Zm-10.68,0H121A237.19,237.19,0,0,1,140,32.87h10.16C145,38.4,139.81,44.36,134.71,50.69Zm-19.35,0h-7.82a267.36,267.36,0,0,1,22.11-17.82h4.21C127.57,38.36,121.36,44.32,115.36,50.69Zm4.42,19.74H103.62c2.38-3,4.81-5.91,7.32-8.81,2-2.29,4-4.5,6-6.67h14.38C127.4,60,123.53,65.15,119.78,70.43Zm5.28,0c3.78-5.32,7.7-10.51,11.69-15.48h6.08c-2.55,4.34-4.76,8.33-6.5,11.61-.68,1.27-1.36,2.55-2,3.87Zm21.13,21.22H129q3.89-8.55,8.17-17h15.48C150.4,80.29,148.24,86,146.19,91.65Zm16,0H150.66c2.08-5.7,4.25-11.36,6.46-17h9.32Q164.15,83.17,162.23,91.65Zm21.13,0H166.48c1.32-5.78,2.72-11.48,4.25-17h15C184.9,80.21,184.09,85.87,183.36,91.65Zm3-21.22H171.88c1.53-5.36,3.06-10.55,4.68-15.48h12.21C188,59.92,187.15,65.07,186.34,70.43Zm3.15-19.74H177.92q3.26-9.69,6.47-17.82h8.16C191.57,38.32,190.55,44.32,189.49,50.69Zm10.38,19.74h-9.23c.81-5.36,1.61-10.51,2.42-15.48h6.51Zm-.39-19.74h-5.7c1.07-6.42,2.13-12.37,3.11-17.82h2.25Zm-.55-28.83.13,6.76h-1.41Q198.36,25,198.93,21.86Zm-1.32-15.4c-.42,2.09-1,4.81-1.61,8.08h-3.45A49.51,49.51,0,0,1,197.61,6.46ZM195.19,18.8c-.56,3-1.19,6.25-1.83,9.82h-7.27q2.22-5.41,4.33-9.82Zm-7.44-4.26h-.09c.09-.08.17-.21.26-.29A3.22,3.22,0,0,1,187.75,14.54Zm-.09-6.08c-1.57,1.79-3.15,3.87-4.76,6.08h-3.53A56.73,56.73,0,0,1,187.66,8.46ZM175.88,10c-2,1.36-4,2.89-6.08,4.5h-3.23A101.19,101.19,0,0,1,175.88,10Zm-1.06,8.76H180c-2,3-3.91,6.29-5.91,9.82h-8A125.24,125.24,0,0,1,174.82,18.8Zm-10.13,0q-5.16,4.53-10.37,9.82h-9q7.08-5.49,13.95-9.82Zm-25.81,9.82h-3.11c5.19-3.49,10.47-6.63,15.66-9.48C147.26,22,143.05,25.22,138.88,28.62ZM142,18.8h1.11c-5,3-10.08,6.21-15.14,9.82h-4.59Q132.67,23.13,142,18.8Zm-25.6,14.07h5.79A265.45,265.45,0,0,0,101,50.69H91.67A260.45,260.45,0,0,1,116.38,32.87ZM86.57,55h10c-1.32,1.23-2.59,2.46-3.91,3.78-3.79,3.83-7.44,7.74-11,11.7H69.77C75.21,65,80.83,59.8,86.57,55Zm-21,19.73H77.89C73,80.25,68.49,86,64.33,91.65H50.5C55.31,85.82,60.37,80.12,65.6,74.68ZM47.06,95.9h14.2a228.38,228.38,0,0,0-14.5,23.18H30.43C35.62,111.09,41.19,103.3,47.06,95.9ZM27.75,123.33h16.8A155.67,155.67,0,0,0,38,138H19.25C21.88,133.07,24.77,128.18,27.75,123.33ZM17,142.26H36.43a93.15,93.15,0,0,0-3.87,15H9.76C11.93,152.38,14.35,147.36,17,142.26ZM4.53,181.81c.47-8.67,1.62-15.48,3.4-20.29H32s0,.13,0,.18c-.68,7.1-1.23,13.86-1.7,20.49H4.49A1.26,1.26,0,0,1,4.53,181.81ZM4.28,192.1v-2.21c0-1.15,0-2.29,0-3.44H29.88c-.43,6.16-.81,12.12-1.07,17.86H4.66C4.4,200.06,4.28,196,4.28,192.1Zm.63,16.46H28.6c-.3,6.85-.51,13.36-.64,19.61H6.74C5.93,221.41,5.34,214.86,4.91,208.56Zm2.34,23.86H27.88c-.09,8.51,0,16.5.21,24H11C9.51,248.37,8.27,240.29,7.25,232.42Zm4.47,28.28h16.5c.21,5.28.47,10.42.81,15.23H14.82C13.72,270.87,12.7,265.81,11.72,260.7Zm4.08,19.48H29.37c.55,7.23,1.27,13.91,2.12,20H20.86C19,293.75,17.37,287,15.8,280.18Zm6.25,24.29h10c.72,4.8,1.53,9.31,2.38,13.48H26.26C24.82,313.61,23.41,309.1,22.05,304.47Zm5.66,17.73h7.65c1.24,5.49,2.6,10.33,4,14.63H33.53C31.54,332.36,29.58,327.47,27.71,322.2Zm13.74,29.56a94.43,94.43,0,0,1-5.92-10.68h5.19c3.57,10.21,7.23,16.76,10,20.76C47.78,360,44.63,356.56,41.45,351.76Zm3.87-10.68h4.16c.77,6,1.53,10.63,2.3,14.29A92.17,92.17,0,0,1,45.32,341.08Zm6-36.61H68c-.64,4.72-1.24,9.22-1.92,13.48H51.86C51.65,313.78,51.48,309.27,51.31,304.47Zm5.83,55a152.17,152.17,0,0,1-3.28-18.42H62A163.17,163.17,0,0,1,57.14,359.5Zm-3.79-22.67c-.46-4.25-.85-9.14-1.23-14.63H65.47c-.85,5.32-1.7,10.16-2.59,14.63Zm13,4.25h2.09c-1.28,2.85-2.6,5.62-3.91,8.21C65.09,346.78,65.73,344.06,66.32,341.08Zm16.17,0H91.8C82.32,351.76,73,359,64.84,362A128.42,128.42,0,0,0,82.49,341.08Zm-.64,19.48A120.66,120.66,0,0,0,108,341.08h15.82A117.19,117.19,0,0,1,81.85,360.56Zm47.46-23.73h-17c4.38-4.47,8.68-9.4,12.93-14.63h19.86A161.24,161.24,0,0,1,129.31,336.83ZM149,318H128.63c3.27-4.3,6.46-8.81,9.61-13.48H160C156.57,309.06,152.91,313.57,149,318Zm14-17.74H141c4-6.33,7.82-13,11.44-20h23.26C171.92,286.82,167.71,293.54,163,300.21Z"/><path d="M377.85,300.21H357.27c2.21-6.5,4.33-13.22,6.33-20h.9a22.53,22.53,0,0,1-4.94-4.25H347.1c.64-3.06,1.28-6.17,1.91-9.27l-.12-.13-.51-.3A21,21,0,0,1,343.7,271c-.34,1.66-.68,3.27-1.06,4.89H328.05l-1.24,3.36-2.67-4.47a28.42,28.42,0,0,1-3.15-1.06c0,.72,0,1.45-.09,2.17h-17c0-1.83-.08-3.66-.12-5.57a45.9,45.9,0,0,1-4.26,1.83c.05,1.27.05,2.5.09,3.74H286l-.51.17-3.91-.3v.13H268.08c-.21-1.07-.38-2.09-.59-3.15a22.79,22.79,0,0,1-4.94-3.36c.34,2.17.77,4.34,1.15,6.51H246.56c-.85-3.32-1.7-6.68-2.51-10h-4.12c.76,3.36,1.61,6.72,2.46,10H222.53c-.34-1-.72-2-1-3a18.32,18.32,0,0,1-4.5.68c.59,1.75,1.19,3.45,1.82,5.15a251.77,251.77,0,0,0,10.3,24.45A188.3,188.3,0,0,0,239,321.18a140,140,0,0,0,14.2,19.18c16.25,18.2,35,27.47,55.63,27.69a.8.8,0,0,0,.3,0h.38c16.08,0,31.3-8,45.42-23.69.47-.55,1-1.11,1.45-1.66.72-.85,1.45-1.57,2.13-2.42q2.1-2.62,4.21-5.49c.25-.3.46-.64.72-1,.77-1.06,1.57-2.17,2.34-3.31s1.49-2.22,2.21-3.32l.77-1.15c9.35-14.63,17-31.22,22.88-46.7a24.31,24.31,0,0,1-6,3.24C383.21,288.39,380.66,294.3,377.85,300.21Zm-31.64-20h12.88c-2,6.85-4.21,13.53-6.46,20H341.44Q343.93,290.58,346.21,280.18ZM336.51,318c1.28-4.3,2.55-8.81,3.83-13.48h10.8c-1.66,4.63-3.4,9.14-5.14,13.48Zm7.66,4.25c-2.26,5.23-4.6,10.16-7,14.63h-7c1.66-4.47,3.36-9.4,5-14.63Zm-19.27-42h16.8c-1.57,7-3.23,13.65-4.89,20H323.54C324.05,294.09,324.48,287.45,324.9,280.18Zm-1.7,24.29h12.46c-1.32,4.67-2.59,9.18-3.91,13.48H322C322.39,313.78,322.82,309.31,323.2,304.47Zm-1.7,17.73h8.89c-1.7,5.32-3.41,10.21-5.06,14.63h-5.74C320.27,332.58,320.9,327.73,321.5,322.2Zm-.85-42c-.43,7.27-.85,13.95-1.32,20H304.66q-.33-9.12-.6-20Zm-18.46,56.65H293.6c-1.06-4.51-2-9.4-2.89-14.63H301.3C301.55,327.73,301.89,332.58,302.19,336.83ZM301.08,318H290c-.64-4.34-1.24-8.85-1.75-13.48h12.21C300.66,309.31,300.87,313.78,301.08,318Zm-1.31-37.77c.17,7.27.38,13.91.59,20h-12.5c-.68-6.46-1.23-13.18-1.75-20Zm-13.36,42c.85,5.23,1.79,10.12,2.81,14.63H284.8c-1.87-4.47-3.7-9.4-5.4-14.63Zm-11.4,0c1.71,5.19,3.49,10.08,5.41,14.63H271a131.2,131.2,0,0,1-8.08-14.63ZM261,318q-3-6.65-5.49-13.48H270c1.19,4.63,2.43,9.14,3.75,13.48Zm24.75,0h-7.65c-1.32-4.34-2.6-8.85-3.79-13.48H284C284.54,309.14,285.09,313.61,285.73,318Zm-3.87-37.77q.76,10.4,1.7,20H273.27c-1.57-6.46-3.06-13.18-4.38-20Zm-17.35,0q2,10.27,4.38,20h-15c-1.74-5.06-3.36-10.08-4.76-15-.51-1.66-1-3.36-1.45-5.06Zm-40.4,0h19.43q2.81,10.27,6.13,20h-17C229.51,293.54,226.66,286.82,224.11,280.18Zm10.63,24.29H251.2c1.7,4.63,3.44,9.14,5.36,13.48H242.27C239.59,313.57,237.08,309.06,234.74,304.47Zm21.39,32.36A131.6,131.6,0,0,1,245,322.2h13.48a149.83,149.83,0,0,0,7.74,14.63Zm3.91,4.25H269a76.31,76.31,0,0,0,14.92,17A78.63,78.63,0,0,1,260,341.08Zm13.87,0h8.33c3.49,7.66,7.36,14,11.57,18.59C286.33,355.8,279.69,349.21,273.91,341.08Zm12.8,0h3.57a85.25,85.25,0,0,0,4.89,14A69.12,69.12,0,0,1,286.71,341.08Zm17.22,19.86c-3.74-3.74-6.76-10.71-9.27-19.86h7.87c.85,10.76,1.79,17.14,2.68,21A9.75,9.75,0,0,1,303.93,360.94Zm.85-56.47H319c-.38,4.84-.81,9.35-1.23,13.48H305.38C305.17,313.82,305,309.31,304.78,304.47Zm.81,17.73h11.7c-.64,5.57-1.28,10.42-1.92,14.63h-8.93C306.15,332.62,305.85,327.77,305.59,322.2Zm3.83,39.85c-.68-2.77-1.66-8.63-2.64-21h8C312.61,353.63,310.65,359.41,309.42,362.05Zm9.53-21h4.72c-3.11,7.83-6.08,13.91-8.68,17.74A133.8,133.8,0,0,0,319,341.08Zm-.05,19.18a104.93,104.93,0,0,0,9.62-19.18h6.29C329.71,349.89,324.39,356.56,318.9,360.26Zm6.17.43c5.1-4.68,10-11.4,14.59-19.61h12.25C343.91,350.06,335,357,325.07,360.69Zm30.45-23.86H342c2.38-4.55,4.67-9.44,6.88-14.63h17A150.29,150.29,0,0,1,355.52,336.83ZM368.45,318H350.63c1.74-4.34,3.49-8.85,5.1-13.48h20C373.47,309,371,313.57,368.45,318Z"/><path d="M91.62,234.12c.13-1.66.13-1.66.26-5.45a17.35,17.35,0,0,1,.29-3.27h.26a1.93,1.93,0,0,0,1.53-.64c.21-.17.43-.3.68-.47a22.61,22.61,0,0,1,3.23-1.7l.56-.38a8.52,8.52,0,0,1,2.46-2l1.62-1.06c.89-.6,1.91-1.28,2.93-2l3.23-2.26a12.24,12.24,0,0,0,2.51-1.87,37.51,37.51,0,0,0,4.13-3.57c.51-.47,1.11-1,1.7-1.61a8.74,8.74,0,0,0,2.38-3.19l.51-.77c.68-.64,1.28-1.19,1.75-1.7a11.08,11.08,0,0,0,2.42-3.74c.09-.22.17-.39.21-.51.34-.77.34-.81.47-1.07,1.28-2.55,1.49-3.14,3-9.48,0-.21.13-.43.17-.68a91.84,91.84,0,0,0,1.36-15.91v-.72c-.08-1.19-.17-2.3-.3-3.23-.17-2.3-.34-3.79-.42-4.21a19,19,0,0,0-.34-3.07l-.17-1A1.86,1.86,0,0,0,128,158a13.9,13.9,0,0,0-.21-1.57c-.08-.68-.25-1.45-.42-2.68,0-.26-.09-.55-.13-.9a27.77,27.77,0,0,0-1.62-5.74c-.42-1.66-1.06-3.48-1.83-5.61l-.17-.47-.64-2-.08-.25a22.41,22.41,0,0,0-1.45-3.28l-.34-.72-.76-1.57-.43-.68a10.65,10.65,0,0,1-1-1.79c-.08-.21-.21-.47-.34-.77-.85-2.21-1.7-2.8-2.21-3l-.34-.34a1.88,1.88,0,0,1-.13-.34,31.6,31.6,0,0,0-1.7-3.87l-.34-.42a22.29,22.29,0,0,1-2-1.91c-.55-.6-.55-.6-1.27-2.39l-.3-.46a2.56,2.56,0,0,0-.55-.51l-1.15-1.41-1.75-.59c-.08-.09-.21-.22-.34-.39a1.36,1.36,0,0,0-.21-.29,9.5,9.5,0,0,0-2-2.47,13.3,13.3,0,0,1-1.57-1.19l-1-.77a5.65,5.65,0,0,0-.85-.76l-.77-.6c-.42-.34-.81-.64-1.1-.89-.94-.77-1.41-1.23-1.45-1.23l-.51-.47h-.6a9.69,9.69,0,0,1-1.31-.13c-.64-1.11-1.11-1.7-2.51-1.7a4.41,4.41,0,0,0-3.11,1.79c-.51.72-.89,1.31-1.23,1.74,0,0,0,.08-.09.13l-.38.55-.13.17a9,9,0,0,0-2.46,3.19.56.56,0,0,0-.09.21c-.59,1.32-.85,2-1.15,2.55-.08.22-.25.51-.46.94l-.64,1.23A8,8,0,0,0,81.54,121a12.9,12.9,0,0,0,1.7,6.21,5.46,5.46,0,0,1,.81,1.7A6,6,0,0,0,85.16,131c.21.6.68,1.83,1.31,3.83.13.34.26.72.39,1.15.25.89.38,1.57.51,2,0,.17,0,.3.08.43a3.4,3.4,0,0,0-.08.63c0,.22,0,.43-.09.6s0,.34-.12.72v.13l-.09,1.7c0,.72,0,1.19,0,1l-.34,1.62a3.77,3.77,0,0,0-.08,1.1l-.13.9c-.09.89-.21,1.87-.34,2.85s-.68,4.89-1,8.33c-.21,2.17-.38,4.08-.38,4.81,0,.34-.26,2.34-.73,5.95L83.84,171l.08.34s.09.38.17.94c0,.08,0,.38,0,.76-.08,1-.3,2.81-.47,4.25a7.29,7.29,0,0,1-.08,1c-.17,1.88-.34,3.24-.43,4,0,.47-.08.77-.08.77l-.13,2.29c-.26,3.87-.38,5.62-.6,7a8.58,8.58,0,0,0,.13,1.4v.85a11.44,11.44,0,0,1,0,1.15L82,197l-.09.46V198c0,.63,0,1.74-.08,3.31l-.09.94-.21,2.64c0,.63-.09,1.06-.09,1.06h0a9.14,9.14,0,0,0-.3,2.3l0,1a7.62,7.62,0,0,0,.21,1.48l-.21,1.37a20.9,20.9,0,0,0-.25,2.38c-.13,1.53-.13,1.95-.13,2.25a16.1,16.1,0,0,1-1.4,2.43.7.7,0,0,0-.18.12c-2.8,2.09-3.06,2.6-3.06,5.91,0,1.41.94,2.94,2.77,4.68a1.82,1.82,0,0,0,.34.34l.3.3a3.58,3.58,0,0,1,.46.51v.51a3.7,3.7,0,0,0,.26,1.06L80,238.45c0,1-.09,2.17-.17,3.58l-.09,1.48.05.39.08.76c-.17,2-.21,2.68-.21,3.49a11.49,11.49,0,0,0,0,1.28l-.13,3.48a27.8,27.8,0,0,1,.25,3.11,12.36,12.36,0,0,0,.56,3.14c.25.81.25.81,1.1,3.87a4.63,4.63,0,0,0,3.62,2.6c1.87,0,3.61-2.42,4.29-3.79.47-.93.81-1.48,1-1.82a18.93,18.93,0,0,1,.94-1.79l.29-.81a9.71,9.71,0,0,0,.56-1.87l.93-1.79a8,8,0,0,0,.85-3,6.24,6.24,0,0,0-.59-2.59,2.67,2.67,0,0,0-.3-.34c-.34-.38-.55-.6-.68-.77l-.09-.34a27,27,0,0,1-.68-2.8,13.37,13.37,0,0,1-.21-1.49c.13-2.89.13-2.89.13-3.53C91.41,237.31,91.54,235.69,91.62,234.12ZM96.68,130.9c.51.34,1,.72,1.53,1.15.43.21.68.34.68.25a16.74,16.74,0,0,0,1.32,2.51c.13.17.21.34.34.51.9,1.11,2.38,3,2.72,3.53a1.12,1.12,0,0,0,.13.21c1,2.09,1,2.17,1.28,2.38a22.27,22.27,0,0,1,1.4,1.92c.26.38.47.72.64.93a10.5,10.5,0,0,0,1.49,2.64,8.35,8.35,0,0,1,.42.94c.09.25.22.55.34.89l.73,1.91c.89,2,1.31,3.24,1.36,3.24l0,.46A16.73,16.73,0,0,0,112,157l.43,1.06.6,1.45a4.34,4.34,0,0,0,.55,1.15,10.44,10.44,0,0,0,.17,2.72l.68,4c.17,1.27.42,3.31.55,4.8l.09.81,0,.38,0,.22c.13,1.83.13,3,.13,3.65v.34l.25,1.62c0,.85-1.4,7.91-1.61,8.63l-.72,1.88-.81,2.16a10.31,10.31,0,0,1-.3,1.24c-.17.13-.3.3-.43.38-1.74,1.66-2.25,2.21-2.8,3.45a6.07,6.07,0,0,1-.77,1l0,0-1.15,1a13.07,13.07,0,0,0-.89,1.1c-.13.13-.21.26-.51.6l-1.11,1.19a7.36,7.36,0,0,0-.76.72,3.45,3.45,0,0,0-1.28.85l-.13.22-.72,1a3.28,3.28,0,0,1-1.11.72l-1.74,1.28a9.13,9.13,0,0,1-1.62,1.15,4.82,4.82,0,0,0-1.14.85,15.34,15.34,0,0,1-1.32.89,7,7,0,0,0-.94.76,1.68,1.68,0,0,1,0-.42c.13-2.55.34-5.1.6-7.74.13-1.36.26-2.77.43-4.25,0-.26,0-.51.08-.81a22.16,22.16,0,0,0,.13-2.51,8.3,8.3,0,0,1,.34-2.94c0-.25.08-.42,0-.42l.21-.64c.09-.85.22-1.57.3-2.13a9.28,9.28,0,0,0,.17-1.74c.21-1.49.43-3.1.72-4.81l.3-2.08-.13-2.08.22-.51v-.05c.17-.72.29-1.19.29-1.31a3.08,3.08,0,0,0,.35-1.45l.12-1a1.88,1.88,0,0,0,0-.51c0-.08,0-.13-.08-.08l1.87-9.57c.12-.47.29-1.36.42-2.26l.38-2.38c0-.25,0-.47,0-.68a8.41,8.41,0,0,1,.29-2c.13-.76.26-1.53.39-2.25.17-1.28.34-2.55.51-4a4.27,4.27,0,0,1,.08-1,26.84,26.84,0,0,0,.39-3.31,20.16,20.16,0,0,0-.86-4.47l-.68-2-.29-.85c-.51-1.1-.94-2-1.58-3.4-.21-.51-.51-1.15-.8-1.87a21.4,21.4,0,0,1-1.28-2c0-.08-.09-.13-.13-.21A1.92,1.92,0,0,1,96.68,130.9Z"/><path d="M195.14,160.37a7.56,7.56,0,0,1-.22-1.91c0-.13,0-.26,0-.43-.08-1.06-.3-2.85-.51-4.25a8.8,8.8,0,0,0-.3-1.53,22.38,22.38,0,0,0-.51-3.28c-.21-1.4-1.44-6.21-2.55-9.91a39.18,39.18,0,0,0-1.36-4.25c-.08-.08-.08-.17-.13-.21l-.68-1.41a23.34,23.34,0,0,1-1.36-3,47.19,47.19,0,0,0-2.38-4.72,38.17,38.17,0,0,0-2.17-3.32l-.34-.43c-.47-.51-.81-.93-1.06-1.19a1.6,1.6,0,0,0-.13-.21c-.77-1.45-1.28-2.21-2.51-2.21h-.64l-.34-.34a2.73,2.73,0,0,0-2.08-1.11h-1.15l-.3-.68-1.95-.64-.64-.08a2.34,2.34,0,0,0-2,1.19c-.38.68-.68,1.15-.89,1.45l-1-.22c-1.53,0-3.87,2.43-4.21,2.85l-.64.77-1.7,2.17c-1.06,1.32-1.79,2.25-2.17,2.63a13.35,13.35,0,0,0-1.36,1.58l-.13.13-.25.29a8.88,8.88,0,0,1-.64,1.07,35.64,35.64,0,0,0,1.27-7.57c0-2-1.4-5.53-3.74-5.53a2.35,2.35,0,0,0-1.87,1.19,18.91,18.91,0,0,0-1.11,2,3.71,3.71,0,0,0-.59.55l-.13.17a4.81,4.81,0,0,0-1.87,2.72,11.32,11.32,0,0,0-.38,1.66l-.17.85c-.26.68-.6,1.36-.9,2s-.55,1.19-.85,1.91c-.29.89-.55,1.87-.8,2.85-.17.64-.34,1.27-.6,2,0,.25-.09.47-.13.68-.42,1.91-.72,3.32-.89,4.25a5.22,5.22,0,0,1-.09.6c0,.13,0,.21,0,.3-.08,1.1-.17,1.87-.17,1.91-.85,3-1.7,6.12-2.38,9.44l0,1.11-.39,1.36-.17.59-.17,2.56-.29,1.1-2,7.1a30.84,30.84,0,0,0-1.11,4.34,14,14,0,0,0-.64,2l-.38,1.36a.46.46,0,0,1-.08.21,10.44,10.44,0,0,1-.43,1.23,7.6,7.6,0,0,0-.76,2.22c-.09.29-.22.55-.3.8a63.78,63.78,0,0,0-2.55,8.17,7.8,7.8,0,0,0-.17,1.57l.12.9v.17a7.39,7.39,0,0,0-.12,1,19.63,19.63,0,0,1-.51,2.6l-.13,3.32a5,5,0,0,0,.38,2,3.86,3.86,0,0,0,.64,1,4.82,4.82,0,0,0,2.25,1.23l.47,0a1.45,1.45,0,0,0,.89-.34V199a8.33,8.33,0,0,1-.42,1.83l-.09.59c0,.26-.08.47-.12.81a18.58,18.58,0,0,0-.09,2.13c0,1-.08,1.87-.17,2.84l-.08,2.9a10.39,10.39,0,0,1-.09,1.44,33.87,33.87,0,0,0-.13,4.89v.9c0,1.14,0,1.61-.08,2.72,0,.38,0,.81,0,1.4l0,.6c.08.85.13,1.53.17,2.25.08,1.15.13,2.34.13,4.38l.08.47a5.85,5.85,0,0,1,.3,1.62,50.11,50.11,0,0,1,.64,5l.29,1.19c.22,1.11.43,2,.56,2.51.21.73.42,1.49.63,2.17l.26.77.34.59a4.56,4.56,0,0,1,.26.81l0,.09.08.29a8.2,8.2,0,0,0,2.09,4,1.88,1.88,0,0,0,.51.55,6.3,6.3,0,0,0,2.34,2.85,9.41,9.41,0,0,0,1.74,1l2,.6.46.13a18.3,18.3,0,0,0,3.92.68s.12,0,.17,0c.42-.08.8-.12,1.27-.17a16.47,16.47,0,0,0,1.83-.25c2.94-1.11,3.32-1.36,3.79-1.75l.34-.42a2.39,2.39,0,0,0,.25-.43h.85v-.59a3.82,3.82,0,0,0,1.53-.64c.64-.59,1.28-1.06,1.79-1.45,0,0,.08,0,.13-.08.3-.26.59-.47.89-.72a9.25,9.25,0,0,0,1.74-1.79l.94-1.11a7.74,7.74,0,0,0,.55-.63,7.58,7.58,0,0,0,.64-.73,13.22,13.22,0,0,0,1.06-1.4,10,10,0,0,0,2.3-3.27l.51-.85a18.59,18.59,0,0,0,2.38-2.77,7,7,0,0,0,.64-1c.55-.81,1.49-2.42,3.28-5.61a8.47,8.47,0,0,0,1.57-2.38c.3-.6.55-1.19.76-1.62,0,0,.05-.08.05-.13a4.13,4.13,0,0,1,.29-.68,5.54,5.54,0,0,0,1.2-2.55l0-.42a1.72,1.72,0,0,1,0-.47c0-.64.26-1.19,1.62-3.36a13,13,0,0,0,1.57-2.55A97.11,97.11,0,0,0,190,202.22c.47-1.45.9-2.89,1.32-4.25a54.75,54.75,0,0,0,1.36-6c.21-1.62.47-3,.68-4.21.17-.68.34-1.75.56-3.19.17-1.24.42-2.73.72-4.68,0-.26,0-1.15.13-2.6,0-.42,0-.85,0-1.36L195,173l.29-5.91c-.12-3-.12-3-.12-4.21Zm-14.21,26.2a25.11,25.11,0,0,0-.64,3.53c-.25,2.25-.38,3.7-.38,3.83-.76,1.27-.89,1.91-1.66,5.82l-.34,2c-.3,1.15-1.83,5.87-2.8,8.55-.26.68-.47,1.27-.64,1.61-.39.77-.6,1.41-.9,2.13a24.87,24.87,0,0,1-3.27,6l0,0-2.38,4.21-.3.51c-.64.89-1.41,2-2.17,3.23a20.51,20.51,0,0,1-3,3.32c-2.34,2.21-2.43,2.3-6.72,3l-1-.43L154,234a1.6,1.6,0,0,1-.17-.3,8.53,8.53,0,0,0-1.15-1.66c-.38-.59-.55-.85-.76-1.14s-.22-.56-.39-1.07c-.76-2.85-2.16-7.91-2.5-9.82a5.17,5.17,0,0,1-.09-.64c-.09-1.53-.17-2.51-.21-3.06l-.05-.6c-.12-.81-.72-6.93-.72-7.48l.13-6,.08-4.25,0-1c0-3.7.34-11.49.68-14.08l.64-4.89a5.58,5.58,0,0,1,0-.77c0-1,.21-2.51.38-4.25.43-3.44,1-7.57,1.4-9.65a14.22,14.22,0,0,0,.26-1.75l.25-2.59c0-.21,0-.21.22-.81,0,0,0-.13.08-.17.6-1.36,1.11-2.47,1.49-3.23l.47-1c1.44-2.81,1.53-3,3-5.44a4.09,4.09,0,0,1,.51-.6,3.44,3.44,0,0,0,.46-.59,7.51,7.51,0,0,1,1-1.11l.13-.13.3-.29a7.05,7.05,0,0,0,1.83-1.71,2.22,2.22,0,0,1,.47-.25l.51-.3a4,4,0,0,0,2-1.36,7.84,7.84,0,0,1,.76-.64c1.36-.21,1.66-.25,1.91-.55a1.78,1.78,0,0,1,.64-.21c1.83,0,5.87,2.29,6.25,2.89a3.49,3.49,0,0,0,.39,1l1.49,2.89.12.17c.13.38.34.85.64,1.53l1.28,2.68.47.93.08.35.55,1.87a2.58,2.58,0,0,1,.22.59s0,0,0,.09a3.51,3.51,0,0,0,.34.85l0,.25a41.61,41.61,0,0,0,1.32,6,4.93,4.93,0,0,1,.64,1.19v.72a9.55,9.55,0,0,0-.13,1.87l.21,3.53a10.56,10.56,0,0,0,.13,2.77c.13,2,.13,2,.13,2.47l.13,1.4-.05.59-.21,2.05v.21c-.09.89-.17,1.44-.21,1.83s-.09.42-.13.59c-.13,1.15-.26,1.92-.26,2.09Z"/><path d="M220.1,251a11.86,11.86,0,0,0,1.28-2.85c.46-1.28.76-2.51.8-2.59a9.48,9.48,0,0,1,.39-1.54.15.15,0,0,0,0-.12,5.58,5.58,0,0,0,.51-1.53c.72-2.64.72-2.64.94-3.32a13.23,13.23,0,0,0,.89-3l1.06-3.91c.3-.81.6-1.83.94-3,.17-.6.34-1.28.59-2.17l.39-1.83a4.67,4.67,0,0,1,.17-.81c.21-.89.46-1.78.72-2.59a3.64,3.64,0,0,0,.34-1.49l.13-2.17c.21-.6.21-.6.68-1.7a14.39,14.39,0,0,1,.68-2.38,6,6,0,0,0,.59-1.62l.17-.59c.13-.39.26-.81.81-2.34l.09-.39a6.45,6.45,0,0,1-.05.94c0,.38,0,.81,0,1.32v.64a7.27,7.27,0,0,0,.17,1.91,6.74,6.74,0,0,0,.3.89.19.19,0,0,0,0,.09c0,.21.13.29.13.38l0,.55-.34,3.32a43.59,43.59,0,0,1,.46,5.53c0,3.57,0,3.7.3,4.68l.51,2.12a8.5,8.5,0,0,1,.05,1.66,51.78,51.78,0,0,0,1.4,8.3,6,6,0,0,0,1.1,2.12,1.4,1.4,0,0,0,.3.43,5.71,5.71,0,0,0,4.08,2.34l3-1.11.26-.38.47-.6.89,0a3.22,3.22,0,0,0,1.36-.29,2.65,2.65,0,0,0,1.36-1.49,4.83,4.83,0,0,1,1.32-1.62,7.19,7.19,0,0,0,1.11-2.29l.21-.64v0c.64-1.83,1.23-3.62,1.87-6a19.45,19.45,0,0,1,.51-2.09,7.16,7.16,0,0,0,.81-2.76c.08-.55.21-1,.3-1.49v0a7.38,7.38,0,0,0,.25-1.11c.13-.51.21-.93.3-1.27a7.54,7.54,0,0,0,.68-2.17,11.43,11.43,0,0,0,.55-2.51v-.05c.09-.42.13-.63.22-1l.21-.81a9.46,9.46,0,0,0,.81-3.87,5.76,5.76,0,0,0,0-.68v-.09a49.47,49.47,0,0,0,2.55-9.65c.26-1.23.55-2.64.85-4.25.43-2.47.94-5.41,1.57-8.89a40.93,40.93,0,0,1,.9-5.06,40.11,40.11,0,0,0,1.61-6.77s.05-.12.05-.17v-.21l-.13-1.74a7.08,7.08,0,0,1,.68-2.13v0a8,8,0,0,0,.38-2l0-.55a4.18,4.18,0,0,1,.26-1.83c.51-3.87.47-3.87.47-4,.13-1.2.13-1.2.51-3.45l.21-1.66c.09-.59.13-1.1.17-1.53.3-2,.34-2.64.34-2.76,0-.64.09-1.15.13-1.49a5,5,0,0,1,.21-1.41l.38-2a16.87,16.87,0,0,1,.34-3,17.35,17.35,0,0,0,.39-2.89v-.6a11.22,11.22,0,0,0-.22-1.49c.05-.21.09-.55.26-1.15a2,2,0,0,1,.08-.42c.13-.85.51-4.59.51-6l-.12-2.72v-.3l.34-2.93-.09-2.09c.21-5.18.21-5.18.21-5.82,0-.81-.08-4.25-1.65-5.49a2.38,2.38,0,0,0-1.32-.42l-1.75.21v1.19l-.68.94c-.25.38-.46.72-.68,1a18.78,18.78,0,0,0-1.49,2.72,2.59,2.59,0,0,1-.59.85,2.86,2.86,0,0,0-.26.72l-.12.38c-.13.39-.3,1-.68,2.09-.3,1.78-1,7.53-1.07,9.14a1.29,1.29,0,0,0,0,.34v.13c0,.17,0,.51.26,2-.13,1.14-.17,1.74-.26,2.29s-.17,1.15-.34,2.26c-.3,1.53-.51,3.06-.72,4.46l-.13.85c-.13.6-.38,1.87-.64,3.32s-.47,2.85-.64,3.83c-.08.51-.17.89-.21,1.1-.13.94-.3,2-.47,3.15s-.46,2.6-.76,4.08c0,0,0,0,0,.09-.17,1-.34,2-.56,3l-.42,2.34-.17.76a10.33,10.33,0,0,0-.21,1.28l-.17.42c-.3,1.15-.51,2.26-.68,3.32l-.22,1.06a40.07,40.07,0,0,1-.72,5.79l-.21.55a1.92,1.92,0,0,0-.38.85l-.47,2.94-.17.8-.09.3c-.13.43-.17.64-.34,1.19l-.21.77c-.13.59-.21.89-.26,1.19-.12.72-.38,2-.93,4.21-.09.89-.26,1.79-.43,2.68L249,197a7.71,7.71,0,0,0-.21.94c-.39,1.57-.6,2.63-.73,3.27l-.08.68a.72.72,0,0,1-.05.3,7.81,7.81,0,0,1-.38,2.08c-1.1,3.92-1.78,6.64-2.12,8.64a4.44,4.44,0,0,1-.17.55l-.34,1.1a3.91,3.91,0,0,0-.26.9c0-1.15,0-2.47-.13-4,.17-1.49.22-5.62.17-9.23,0-1.62,0-3.15-.08-4.25,0-.6,0-1.07-.09-1.37l.26-9.31-.13-1.36.13-1.23a13.34,13.34,0,0,0,.13-1.41l-.05-.89a9.59,9.59,0,0,0,.26-3l.21-2.13.3-3.36V173a22.42,22.42,0,0,1,.25-3.19c.47-4.68.47-4.68.47-4.89a17.3,17.3,0,0,1,.13-2.21l-.13-.85a2.27,2.27,0,0,1,.09-.68c.21-.94.38-2,.55-3.15.21-1.53.38-3.1.42-4.25a3.35,3.35,0,0,0,0-.68c0-1.19,0-2.26.08-3.19,0-.64.09-1.24.13-1.66a40.3,40.3,0,0,0,.77-5.49,53.35,53.35,0,0,1,.72-7.06c0-.38.08-.68.08-.89a6.8,6.8,0,0,0,.05-.94c0-2.72-.94-8.33-3.75-8.54a.31.31,0,0,0-.21,0c-.85,0-2.59,1.11-3.57,1.75-.13.12-.3.21-.38.3a14.9,14.9,0,0,0-2.09,1.14,5.12,5.12,0,0,0-3.23,3.87c-.13.64-.26,1.11-.34,1.41s-.09.29-.13.42a4.8,4.8,0,0,0-.3.64,4,4,0,0,0-.55,1.45,16.46,16.46,0,0,0-.51,2.8c-.21,1.62-.55,4.21-1,8.3a39.56,39.56,0,0,0-.38,5.31,2.74,2.74,0,0,1-.09.81l0,.3-.26,1.7c-.12.76-.25,1.62-.38,2.55s-.25,2.08-.38,3.23l-.47,2a6.17,6.17,0,0,0-.21,1.4l-.09,3a8.11,8.11,0,0,0-.38,1.15l0,.17-.21.47c-.22,1.78-.47,3.57-.81,5.36l-.51,2.29c-.26,1.07-.47,2.13-.6,3.07-.47,2.63-1,5.06-1.53,7.4-.08.25-.13.46-.21.68v0a6.32,6.32,0,0,0-.13,1.45l-.13,1.48a2.46,2.46,0,0,1-.12.68c-.3.81-.52,1.49-.73,2.17-.13.39-.25.77-.42,1.41s-.22,1.1-.34,1.44-.26.77-.34,1.07a19.67,19.67,0,0,0-.64,3.61l0,.34c-.05.09-.05.21-.09.3-.25,1-.38,1.4-.38,1.53-.17.68-.34,1.28-.47,1.7a6.9,6.9,0,0,0-.3,1c-.12.51-.21.77-.25.94l-.26.68a8.06,8.06,0,0,1-.64,3.27,32.34,32.34,0,0,0-1.36,4.21l-.55,2c-.25.93-.42,1.45-.51,1.83l-.13-1a32.1,32.1,0,0,1-.38-4c-.21-1.41-.34-2.77-.47-4.72-.21-3.79-.3-6.13-.34-7.36a2.56,2.56,0,0,1,0-.51l-.21-1.7c-.13-.77-.22-1.45-.26-2-.08-.34-.08-.64-.13-.94-.25-2.42-.38-5.57-.46-8.8a40,40,0,0,0-.51-6.64l-.13-2.8a14.3,14.3,0,0,0,.13-1.54,10.66,10.66,0,0,0,.12-1.36c0-1.15-.08-2.08-.12-2.89,0-.42,0-.81,0-1.15,0-.81-.08-1.36-.08-1.44l.13-1.53a29,29,0,0,1-.13-2.94,36.58,36.58,0,0,0-.21-4.46l0-.22-.17-.29.17-2.26c0-.21,0-.42,0-.68.13-1.15.21-2.38.26-3.78v-.47l-.13-3c.13-1.75.13-1.75.13-2.17l-.34-3.06a2.75,2.75,0,0,1,0-.64,8.4,8.4,0,0,0,.42-2.42l-.12-3.28v-.13l.12-1c.09-.51.13-.93.13-.93.09-.72.21-1.49.26-2.34a151.68,151.68,0,0,0,.85-15.44,22.56,22.56,0,0,0-1.83-6.33l-.38-.9a3.18,3.18,0,0,0-.13-.51,31.86,31.86,0,0,0-.9-3.19l-.29-.72a1.53,1.53,0,0,0-.26-.34c-1-1.4-3.4-3.53-5.19-3.53a4.06,4.06,0,0,0-2,.42,2.9,2.9,0,0,0-2.3,1.24c-1.06,1.44-1.7,4.34-2.47,9.44-.17,1.06-.34,2.25-.51,3.53l-.12,3.15c-.26,2.21-.26,2.21-.26,2.42l0,.94a7.89,7.89,0,0,1,.22,1.1,2.83,2.83,0,0,1-.09.89c-.21,1-.42,2.09-.59,3.32-.22,1.41-.39,2.94-.52,4.51,0,1.06-.08,2.08-.12,3.1a8.77,8.77,0,0,1-.05,1.15c-.12,4.94-.51,10.08-.8,12.85l.08,1.87v.59l-.13,1.79a12.83,12.83,0,0,0,.13,1.87,3.73,3.73,0,0,0,.09.64,2.74,2.74,0,0,1,0,.55V160a10,10,0,0,0-.21,2.59,20.52,20.52,0,0,1,.08,2.13l.13,4.85c.13,1,.13,1,.25,2.47a3.79,3.79,0,0,0,.13.93,6.07,6.07,0,0,0,1.32,2.68l.34.34a5.67,5.67,0,0,0,.55.55,5.33,5.33,0,0,1,.09,1.15l.38,5.15c.26,2.42.47,5.65.72,9.65a4.23,4.23,0,0,0,.22,1.62l.38,1.27.13,3.28.08.42c.21.77.43,1.49.56,2.22l.08.38a40.31,40.31,0,0,0,.26,4.46,40.23,40.23,0,0,0,.38,5c.17,2.09.34,4.13.51,6.17.17,1.4.3,2.81.47,4.21l.25,1.32a16.64,16.64,0,0,0,.21,1.78v.05a4.38,4.38,0,0,0,.34.76c.51,1.62.51,1.62.56,1.83a10.39,10.39,0,0,0-.39,2.38A5.7,5.7,0,0,0,207,231a28.63,28.63,0,0,1,.6,3.53,59.9,59.9,0,0,0,1.66,9.31v.05l.17.46a4.58,4.58,0,0,1,.25,1.37c.21,1.14.34,1.91.47,2.42a7.47,7.47,0,0,0,.34,1.53c.94,2.43,1.7,4.38,3.4,4.38a2.2,2.2,0,0,0,.72-.13l.52-.08h.17C215.81,254.06,217.34,254.7,220.1,251Z"/><path d="M343.73,112.1a3,3,0,0,0-1.49-.3,9.75,9.75,0,0,0-1.1,0,10.69,10.69,0,0,0-8.21,3.58l-.17.17A14.46,14.46,0,0,0,330,119c-.46.85-1,2-1.91,3.83-.81,1.32-1.83,8.08-1.83,9.78.09.72.13,1.49.17,2.21.13,1.91.17,3.57.21,3.74v1.15c-.12,2.55-.12,2.55-.12,3a18.2,18.2,0,0,0,.59,3.61l-.13,5.74a1.16,1.16,0,0,0,.05.43,1.56,1.56,0,0,0,.17.6c.08.34.17.55.21.72s0,.3.08.34v.25c-.12.77-.25,1.41-.29,1.87s-.09.6-.09.73v2.25a8.61,8.61,0,0,0,.13,1.62,66.81,66.81,0,0,1,.25,7.74l-.08,4.42-.09,4.25,0,.81v.34l-.17,7.79c0,4.8-.38,6-1.19,6.63a12.56,12.56,0,0,0-2.93,3.06,9,9,0,0,0-1,2.09,11.8,11.8,0,0,0-.69,4.25,2.19,2.19,0,0,0,0,.51,10.7,10.7,0,0,0,.94,3.4,11.34,11.34,0,0,0,.72,1.23,17.89,17.89,0,0,0,1.87,2.77,7.86,7.86,0,0,1,.9,2.55c-.09,4-.17,7.27-.34,9.65a5.49,5.49,0,0,0-2.56-4,2.27,2.27,0,0,0-1.19-.3,4.74,4.74,0,0,0-3.83,2,3.8,3.8,0,0,0-.8,1.74,2.62,2.62,0,0,0-.22.47l-.46.47a6.09,6.09,0,0,1-1.79,1.57,4.07,4.07,0,0,1-1,.43,4.07,4.07,0,0,0-1,.46l-.47.39c-.46.51-.8.89-1,1.19a3.3,3.3,0,0,0-1.4,1.1c-.6.43-.68.51-1.11.77a24.79,24.79,0,0,0-2.76,1.28,5.63,5.63,0,0,0-.6.38h0c-.51.34-.81.55-1,.72s-.55.3-1.36.77a0,0,0,0,1,0,0l-1.41-.94-.8.34a17.19,17.19,0,0,1-2,.77,6,6,0,0,1-.56.21,5.53,5.53,0,0,0-1.44.55h-.64l-.47.43a4.63,4.63,0,0,1-1,.81,7,7,0,0,0-2.68.25c-.68.22-1,.34-1,.34h-.17c-1.07-.38-1.15-.42-1.53-.42l-4,.25-1.62.09-1.4.08a10.46,10.46,0,0,1,.13-1.7l0-.59c.08-1.24.21-2.3.21-3.24a14.68,14.68,0,0,1,.21-3.78,28,28,0,0,0,.6-5.57,21.46,21.46,0,0,0-.26-2.3l.3-1.23.34-1.49.13-1.91s.08-.77.25-1.54c.13-1.27.26-2.55.26-3.18a12.36,12.36,0,0,1,.08-2.13c.26-1.4.43-2.55.51-3.4l.05-.3.08-.64a22.16,22.16,0,0,1,.43-3.61,1.92,1.92,0,0,1,.89-1.28,18.08,18.08,0,0,1,1.87-1.32l.47-.38a10.79,10.79,0,0,1,.85-1.06c1.32,0,1.79,0,2.34-.39.3-.12.47-.21.51-.21l.47-.08a27.48,27.48,0,0,0,3.91-1.45c.26-.17.38-.3.64-.3a8.36,8.36,0,0,0,1,0,21,21,0,0,0,4.25-.72c.34,0,.76.12,1.15.17.76.08,1.57.17,2,.17l.64-.13c.25-.13.46-.21.72-.34a8.81,8.81,0,0,0,.89-.3,3,3,0,0,0,1.15.51,11.13,11.13,0,0,0,2,.6,2.47,2.47,0,0,0,1.4.46c2.56,0,3.83-4.21,4-6.42l.13-1.53a10.39,10.39,0,0,1,.08-1.32,14.1,14.1,0,0,0,.38-4.76c0-.21-.08-.38-.12-.6a32.44,32.44,0,0,0-1.15-4.25,2.86,2.86,0,0,0-2.3-2.08,6.5,6.5,0,0,1-1.4-.56c-1.19-.46-1.32-.55-1.75-.55l-1.14.13a4.19,4.19,0,0,1-.64.25,5.51,5.51,0,0,0-.77-.25,2.53,2.53,0,0,0-1-.13,3.21,3.21,0,0,0-1.53.3c-1.14.25-2.21.42-3.14.55-.22,0-.39,0-.56.09l-.76.12-.51.17a5.3,5.3,0,0,1-1.07.26c-.34.09-.76.21-1.31.34a2,2,0,0,1-.51.17,10.81,10.81,0,0,0-1.92,1.19,15.74,15.74,0,0,0-1.4,1.15,7.12,7.12,0,0,1-1.06.17l-.47.08-.34.3a24.76,24.76,0,0,0-1.92,1.66,5.62,5.62,0,0,0-1,.89,11.32,11.32,0,0,0-1.4,2.39,3.8,3.8,0,0,0-.47.59l.21-1.91c.05-.34.09-.73.13-1.07.13-.63.21-1.31.43-2.08l.29-2.17.64-4.68c.13-.55.26-1.15.39-1.74.25-1.83.38-3.49.46-4.85l.39-1.66.25-1.27.13-.77c.13-.93.25-1.74.38-2.47s.21-1.31.26-1.78a3.55,3.55,0,0,0,.08-.6,31.76,31.76,0,0,0,.9-8.72c0-.08,0-.17,0-.29a4.62,4.62,0,0,0,.17-.68,21.68,21.68,0,0,0,1.7-5.58c.42-1.91.59-2.55,1.06-3.1a3.25,3.25,0,0,1,.38-.43l.26-.17a1.72,1.72,0,0,0,.81-.34h.51a2.68,2.68,0,0,0,2.17-.72l.68-.47c.3-.17.42-.34.42-.38a3.71,3.71,0,0,1,1.75-.51l.38-.08c.77-.17,1.57-.39,2.55-.68a7.93,7.93,0,0,1,1.4.08,18.24,18.24,0,0,1,4,.55,6.28,6.28,0,0,0,2.34.81h0l.6.81a2,2,0,0,0,1.74,1h.64l1,.47.81.13a.61.61,0,0,0,.38-.09s0,0,.09,0c1.61-.34,2.8-2.68,3-4l.26-2.85c.08-1,.17-1.74.21-2.13a20.26,20.26,0,0,0,.38-4,11.34,11.34,0,0,1,.13-1.66v-.6a18.12,18.12,0,0,0-1.23-7.23l-.22-.42-.46-.3-2.81-1.78c-1-.73-1.28-.9-1.91-.9L315,109a1.93,1.93,0,0,1-.47.08c-.56-.17-1-.34-1.28-.42a4.26,4.26,0,0,0-1.66-.39c-2,0-2.76.3-5.1,1.37-.34-.09-.77-.22-1.36-.34h-.6c-1.19,0-4.46,1.27-6.55,2.29a7.93,7.93,0,0,0-1.61.94l-.81.93-.72.51a10.93,10.93,0,0,0-1.49,1.75c-.55,1-.94,1.74-1.15,2.08l-.89.68a4.41,4.41,0,0,0-.85,1l-.34.6a3,3,0,0,0-.39.59,6.29,6.29,0,0,0-.46,1,3.53,3.53,0,0,1-.64,1s-.05.08-.05.08l-.72.34a3.23,3.23,0,0,0-1.49,1.49l-.68.77a3.27,3.27,0,0,0-.29.38c-.05,0-.05,0-.09.09a3.39,3.39,0,0,0-1,1.06l-.93,2.13-.85,2.55a2.45,2.45,0,0,1-.22.81l-.17.42c-.55.43-.63.68-1.19,1.79a.46.46,0,0,0-.08.21c-.43.89-.85,1.79-1.28,2.51a6.3,6.3,0,0,0-.76,1.74,35.57,35.57,0,0,0-.81,4.38c-.51,3.36-.9,6.09-1.24,8.3v0c-.63,4.72-1,7.23-1.19,8.72a20.12,20.12,0,0,0-.17,2.8c0,1-.29,4.34-1,9.7-.17,1.28-.34,2.72-.56,4.25a.36.36,0,0,0,0,.22l.13,2.34-.6,4.21c.13,1.78.13,1.78.13,2.17v.59l-.6,4.3c-.17,1.36-.29,2.34-.51,4.29V198l-.12,1.74c-.05.64-.13,1.15-.17,1.45s-.09.63-.09.76v.3a8.78,8.78,0,0,1-.08,1.06,6.72,6.72,0,0,0-.17,1.7c0,1.66,0,3.15-.09,3.79a19.44,19.44,0,0,0-.38,4.59,16.68,16.68,0,0,1-.51,4.25c0,1,0,1.79,0,2.43,0,2.08,0,2.42.21,2.68.26.64.34.89.39,1s-.05.25-.09.55a16.27,16.27,0,0,1-.47,1.74,10,10,0,0,0-.29,3.24,12.23,12.23,0,0,1-.05,1.87l-.08.47a21.09,21.09,0,0,0-.13,2.76,27.67,27.67,0,0,1-.13,3.28l.05.55a6.43,6.43,0,0,1,.08,1l0,1.79-.09,2.29c0,.17.05.38.05.6.17,1.36.55,3.48,2.12,4.25a2.55,2.55,0,0,0,1.32.3.12.12,0,0,0,.08,0,12.11,12.11,0,0,0-.25,2.25,5.23,5.23,0,0,0,4.81,5.11h.51l.38.21.34,0,1.87-.17,1.83.21.51-.17,1.79-.64a7.48,7.48,0,0,0,1.31.17c2,0,9.83-3,11.23-4.55l.43-.42.21-.22c.3-.29.3-.34.64-.46l.38-.17a6.3,6.3,0,0,0,1.53-.94,15.08,15.08,0,0,1,2.89-1.66c.09,0,.13-.08.17-.08h.13c1.53.63,4.08-1.62,5.44-3,.51-.56.9-.94.9-1l.89-1.11.43-.29c1.1-.6,2.17-1.28,3.19-2,.72-.47,1.4-.89,1.91-1.23a3.85,3.85,0,0,0,1.4-1.07l.47-.59c.09-.13.26-.26.38-.43a8.78,8.78,0,0,0,2.09-3l.21-.21.43.68.25-.68.89-2.55a6.43,6.43,0,0,1,.94-1.75,2.05,2.05,0,0,0,.47-.89v.43l-.05.76c-.12,2.85-.51,8.72-.76,11.82-.13,2.3-.13,2.3-.13,3.58,0,1,0,2.38-.08,4l-.05.3.09.3a34.85,34.85,0,0,0,1.23,3.27,5.41,5.41,0,0,0,1.19,1.87,5.69,5.69,0,0,0,3.66,2c3.11,0,3.11-3,3.11-5.15,0-.34.12-1.31.21-2.12a3.5,3.5,0,0,0,.08-.64,33.29,33.29,0,0,0,.64-4.25.35.35,0,0,0,0-.17c.47-5.32.47-5.32.6-6.47a15,15,0,0,0,.25-2.17,16,16,0,0,1,.39-3c.34-3.49.51-4.64.51-4.85l.21-.38v-.47a9,9,0,0,1,.13-1.87.59.59,0,0,1,0-.26,6.58,6.58,0,0,1,.08-.93l.94.63a2.08,2.08,0,0,1,.3.3,19.27,19.27,0,0,1,1.87,2.6l.68.76a29.09,29.09,0,0,1,2,2.38l.51.68h.13c.34.39.8,1,1.36,1.62s1,1.23,1.49,1.79l.59.63a4.84,4.84,0,0,0,.68.68l.43.43a4.36,4.36,0,0,0,1.1,1.1l.6.52.25.38a8.82,8.82,0,0,0,2,2.38.58.58,0,0,1,.21.13,7.61,7.61,0,0,1,3.32,3.65l.17.34a5.23,5.23,0,0,0,.68,1.07,6.61,6.61,0,0,0,1.23,1.4l.73.85a4.82,4.82,0,0,1,.34.43l.38.38c.21.21.47.51.72.81s.47.47,1.07,1a14.37,14.37,0,0,1,2.46,1.87,10.39,10.39,0,0,0,2.09,2.17c1,.72,2.34,1.66,3.65,2.68l.43.29c.08.09.21.13.3.22,1.06.8,2.12,1.61,3.19,2.34a1.11,1.11,0,0,1,.42.38s0,.13.09.17c.85,1.74,2.34,4,4.89,4,3.36,0,3.36-2.34,3.36-6.17-.26-8.59-.26-8.76-1.45-10.08L378.31,247a7.63,7.63,0,0,1-.47-.72c-1.83-2.76-2.21-3.15-2.59-3.49l-1.19-.8-.51-.94c-.3-.51-.51-.94-.73-1.32a5.05,5.05,0,0,0-2-1.91l-.55-.17a4.08,4.08,0,0,0-.81-1.28,34.2,34.2,0,0,0-4.25-5.44,22,22,0,0,1-3.06-4l-1.49-2.13-.09-.17-.12-.13-.17-.21-.64-.89c-.6-.81-1.49-1.92-2-2.43-1.74-1.82-2.8-3-2.85-3-.25-.43-.51-.85-.81-1.28a38.34,38.34,0,0,0-2.25-3.61c-.76-.9-2.17-3.07-2.59-3.7-1.19-1.36-2.34-2.81-2.6-3.19-.93-1.66-1.66-3-2.21-4-1.49-2.77-1.74-3.53-1.79-4.25a2.42,2.42,0,0,1,0-.56c0-1.44.17-1.74,1.62-2.63a4.85,4.85,0,0,1,.51-.43l.51-.34c1.87-1.45,5.65-4.55,6-4.81.55-.38,1.27-1,2.67-2.08.6-.51,1.37-1.1,2.3-1.87.51-.43,1.15-.89,1.83-1.45,0,0,.08,0,.13-.08a13.38,13.38,0,0,0,2.42-2.64.5.5,0,0,0,.13-.17l-.13-.08-1.1-1,1.1.81.21.12.77-1.23a23,23,0,0,0,3-2.3l1.19-1.06a3.47,3.47,0,0,0,.77-.89l.68-.9a9.91,9.91,0,0,0,1.48-1.4,36.11,36.11,0,0,0,5.36-6.85,14,14,0,0,1,1.49-3.1,18.32,18.32,0,0,0,1.92-5,25.69,25.69,0,0,0,.68-4.25c.12-1.19.17-2.47.17-3.79a38.56,38.56,0,0,0-1.88-10.93,27.81,27.81,0,0,0-1.4-3.78l-1.1-1.66-.81-1.28a7.05,7.05,0,0,1-.47-1,14.27,14.27,0,0,0-1-1.91c-.09-.13-.13-.21-.17-.26l-1.11-1a10.43,10.43,0,0,0-.76-.77l-.56-.51a6,6,0,0,0-1.06-1.45,1.88,1.88,0,0,1-.68-.8l-.42-.6s-.56-.47-1.24-.94l-.47-.21a1.11,1.11,0,0,1-.51-.3l-.42-.46c-.51-.39-.94-.73-1.28-1a6.21,6.21,0,0,0-.89-.68,10.44,10.44,0,0,0-2.81-2,7.49,7.49,0,0,0-2-1.41,3.12,3.12,0,0,0-1.4-1,6.06,6.06,0,0,0-3.4-1.53h-1.32a8.81,8.81,0,0,0-1.32-.85l-1-.51-1.36-.64-.08-.68h-1.66a2.05,2.05,0,0,0-1.24.38Zm18.76,46.78-.64.94a.55.55,0,0,0-.17.21h-.3l-.42,1a3.93,3.93,0,0,1-.22.43l-.21.38a8.7,8.7,0,0,0-.72,1.06c-1.11,2.09-1.11,2.09-1.66,2.68-.72.72-1.28,1.32-1.62,1.74v0a0,0,0,0,0,0,0l-.68.72a6.8,6.8,0,0,1-1.53,2.13,5.1,5.1,0,0,0-2,1.74c-.17.39-.29.73-.42,1s-.17.38-.21.51c-1,0-1.49.47-2.34,1.45l-.39.25a13.21,13.21,0,0,1-1.19,1.19,5.64,5.64,0,0,0-.76.85,0,0,0,0,0-.05.05c-.59.89-1.06,1.44-1.31,1.78,0,0-.09.09-.13.09a6.13,6.13,0,0,0-1.57,1.19,2.59,2.59,0,0,1-.77.38l-.51.3-.47.3-.51.34a17.19,17.19,0,0,0-1.87,1.49,16.9,16.9,0,0,0,.38-3.11,6.66,6.66,0,0,1,.13-1.66c0-.42.09-.81.13-1.15s.17-.89.25-1.31c.09-1.11.13-1.32.13-1.58A5.39,5.39,0,0,0,341,173a2.19,2.19,0,0,0,0-.51c.05-.17.09-.64.17-1.32.17-1.19.43-3.06.68-5.65l.26-2.26c.3-3,.42-4.76.47-5.23v-.13c.38-1.87.63-3.14.8-4.12a16,16,0,0,0,.3-2.94,6.66,6.66,0,0,0-.17-1.36l-.47-1.32a2.14,2.14,0,0,0-.12-.63c-.6-2.09-1.28-4.68-4-4.68a2.6,2.6,0,0,0-2.26,1l-.25.25s0,.09-.09.17c-.3.26-.55.43-.72.56a5,5,0,0,0-.47.25c0-.38,0-.76,0-1.19L335,143a6.84,6.84,0,0,1-.13-1.19,16.71,16.71,0,0,1,.22-2.77,6.37,6.37,0,0,1,.68-2.42c.25-.17,1.4-.72,1.91-.94a10.93,10.93,0,0,0,2.55-.34h.05c1.1.3,2.08.47,3,.68l.43.05c1,.17,1.53.29,2,.38a11.47,11.47,0,0,1,1.7.38,23.07,23.07,0,0,1,5.06,2c6,4.13,6,4.17,6.51,4.85a25.06,25.06,0,0,1,4.8,8.21,4.66,4.66,0,0,1,.3,1.53A14.45,14.45,0,0,1,362.49,158.88Z"/><path d="M417.05,238.5l.47-.85a18.59,18.59,0,0,0,2.38-2.77c.34-.38.9-1.23,3.91-6.59a8.32,8.32,0,0,0,1.58-2.38c.3-.6.55-1.19.76-1.62,0,0,.05-.08.05-.13a4.13,4.13,0,0,1,.29-.68,5.39,5.39,0,0,0,1.19-2.55l.09-.42a1.72,1.72,0,0,1,0-.47,3,3,0,0,1,.47-1.45c.21-.42.6-1.06,1.11-1.91a2.36,2.36,0,0,0,.34-.47,40,40,0,0,0,3.7-8c.76-1.92,1.48-4,2.12-6,.47-1.45.9-2.89,1.28-4.25a48,48,0,0,0,1.4-6c.21-1.62.47-3,.73-4.21.12-.68.29-1.75.51-3.19.17-1.24.42-2.73.72-4.68,0-.26,0-1.15.13-2.6,0-.42,0-.85,0-1.36l.13-2.89.29-5.91c-.12-3-.12-3-.12-4.21v-2.51a7.56,7.56,0,0,1-.22-1.91c0-.13,0-.26,0-.43-.08-1.06-.3-2.85-.47-4.25a14.11,14.11,0,0,0-.34-1.53,22.38,22.38,0,0,0-.51-3.28,13.6,13.6,0,0,0-.38-1.78c-.47-2-1.23-4.94-2-7.49-.08-.21-.12-.42-.21-.64a39.18,39.18,0,0,0-1.36-4.25c-.09-.08-.09-.17-.13-.21l-.68-1.41c-.59-1.23-1.06-2.21-1.36-3-.21-.47-.55-1.28-1-2.17-.81-1.53-1.83-3.32-2.64-4.55a9.35,9.35,0,0,0-.89-1.32l-.34-.43c-.08-.08-.13-.17-.17-.21-.38-.42-.64-.76-.89-1-.85-1.57-1.36-2.42-2.64-2.42h-.64l-.34-.34a2.73,2.73,0,0,0-2.08-1.11H420.2l-.3-.68-1.91-.64-.64-.08a2.36,2.36,0,0,0-2,1.19c-.38.68-.68,1.15-.89,1.45l-1-.22c-1.53,0-3.87,2.43-4.21,2.85l-2,2.47-.34.47c-1.06,1.32-1.79,2.25-2.17,2.63a13.35,13.35,0,0,0-1.36,1.58l-.34.42c-.26.43-.47.77-.68,1.07a35.64,35.64,0,0,0,1.27-7.57,6.15,6.15,0,0,0-.08-.81c-.3-2-1.62-4.72-3.62-4.72a2.36,2.36,0,0,0-1.91,1.19c-.43.76-.77,1.32-1.11,2a3.71,3.71,0,0,0-.59.55l-.13.17a4.81,4.81,0,0,0-1.87,2.72c-.17.56-.26,1.11-.38,1.66l-.17.85c-.26.64-.56,1.32-.85,2,0,0,0,0,0,.09-.25.59-.55,1.19-.85,1.91-.29.89-.55,1.87-.8,2.85-.18.64-.35,1.27-.6,2,0,.25-.09.47-.13.68-.42,1.91-.72,3.32-.89,4.25a5.22,5.22,0,0,1-.09.6c-.12,1.23-.21,2.17-.21,2.21-.85,3-1.7,6.12-2.34,9.44l-.08,1.11-.39,1.36-.17.59-.17,2.56-2.25,8.2a23.12,23.12,0,0,0-1.15,4.34,9.2,9.2,0,0,0-.47,1.32s0,.13,0,.17-.08.3-.13.47l-.38,1.36c0,.08,0,.13,0,.21a10.44,10.44,0,0,1-.43,1.23,6.74,6.74,0,0,0-.8,2.22c-.09.29-.22.55-.3.8-2.09,5.92-2.72,8.17-2.72,9.74l.12,1.07a7.39,7.39,0,0,0-.12,1,19.63,19.63,0,0,1-.51,2.6l-.05.89-.08,2.43a4.21,4.21,0,0,0,1,3,4.82,4.82,0,0,0,2.25,1.23l.47,0a1.45,1.45,0,0,0,.89-.34V199a9.77,9.77,0,0,1-.38,1.83l-.13.59a12.93,12.93,0,0,0-.21,2.94c0,1-.08,1.91-.17,2.89l-.08,2.85a10.39,10.39,0,0,1-.09,1.44,33.87,33.87,0,0,0-.13,4.89c0,.81,0,1.32,0,1.79a31.49,31.49,0,0,1-.09,3.23l.05.6c.08.85.13,1.53.17,2.25.08,1.15.13,2.34.13,4.38l.08.47a6.11,6.11,0,0,1,.3,1.62,50.11,50.11,0,0,1,.64,5l.29,1.19c.22,1.11.43,2,.56,2.51.21.73.42,1.49.63,2.17l.26.77.34.59a2.68,2.68,0,0,1,.25.81l0,.09.08.29a8.2,8.2,0,0,0,2.09,4,1.88,1.88,0,0,0,.51.55c1.27,2.3,1.57,2.55,4.08,3.87l2.42.73a18.3,18.3,0,0,0,3.92.68c.08,0,.12,0,.17,0,.42-.08.8-.12,1.27-.17a14.93,14.93,0,0,0,1.79-.25h0l0,0c2.9-1.07,3.28-1.32,3.75-1.71l.34-.42a1.2,1.2,0,0,0,.25-.43h.85v-.59a3.82,3.82,0,0,0,1.53-.64c.68-.59,1.28-1.06,1.79-1.45,0,0,.08,0,.13-.08.29-.26.59-.47.89-.72a9.25,9.25,0,0,0,1.74-1.79l.94-1.11a7.74,7.74,0,0,0,.55-.63,18.42,18.42,0,0,0,1.7-2.13A10.78,10.78,0,0,0,417.05,238.5Zm-17.39-84.68a0,0,0,0,1,0,0,59.61,59.61,0,0,1,2.94-5.4c.21-.26.38-.47.51-.6a3.44,3.44,0,0,0,.46-.59,7,7,0,0,1,1.15-1.24l.3-.29a7.05,7.05,0,0,0,1.83-1.71,2.22,2.22,0,0,1,.47-.25l.51-.3a4,4,0,0,0,2-1.36,5,5,0,0,1,.8-.64c1.32-.21,1.66-.25,1.87-.55a1.78,1.78,0,0,1,.64-.21c1.83,0,5.87,2.29,6.25,2.89a5.63,5.63,0,0,0,.39,1l.68,1.36.81,1.53.12.17c.13.38.34.85.64,1.53l1.06,2.21.22.47.46.93.3,1.07.34,1.15a2.58,2.58,0,0,1,.22.59,7.4,7.4,0,0,0,.38.94l0,.25c.09.47.17.9.21,1.32.3,1.62.6,2.94.94,4.13,0,.21.13.38.17.55a4.93,4.93,0,0,1,.64,1.19v.72a9.55,9.55,0,0,0-.13,1.87l.25,3.53a15.17,15.17,0,0,0,.09,2.77V173c.13,1.74.13,1.74.13,2.26l.12,1.4,0,.59-.17,2.05a26.28,26.28,0,0,1-.38,2.63c-.13,1.15-.21,1.92-.26,2.09l-.17,2.55c0,.21-.12.47-.17.72a15.42,15.42,0,0,0-.51,2.81c-.25,2.25-.34,3.7-.38,3.83-.64,1.06-.81,1.65-1.32,4-.08.51-.21,1.1-.34,1.78l-.34,2c0,.13-.08.3-.13.51-.63,2.13-2.63,8.12-3.31,9.65-.39.77-.6,1.41-.9,2.13a24.87,24.87,0,0,1-3.27,6l0,0-2.38,4.21-.3.51c-.64.89-1.41,2-2.17,3.23a18.54,18.54,0,0,1-3,3.32s0,0-.09,0c-1.74,1.7-2.21,2.13-4.33,2.56-.6.12-1.37.21-2.3.38l-1-.43-.68.13a1.6,1.6,0,0,1-.17-.3,8.53,8.53,0,0,0-1.15-1.66,7.45,7.45,0,0,1-1.15-2.21c-.42-1.53-1-3.61-1.48-5.57-.47-1.74-.86-3.36-1-4.25,0-.3-.08-.51-.08-.64-.09-1.53-.17-2.51-.21-3.06l-.05-.6c-.12-.81-.72-6.93-.72-7.48l.13-6,.08-4.25.05-1c0-3.7.34-11.49.68-14.08l.64-4.89a5.58,5.58,0,0,1,0-.77c0-1,.21-2.51.42-4.25.39-3.44,1-7.57,1.36-9.65a14.22,14.22,0,0,0,.26-1.75l.25-2.59c0-.21,0-.21.22-.81,0,0,0-.13.08-.17.6-1.36,1.11-2.47,1.49-3.23Z"/><path d="M445.8,174.62l.17,2.63.09.9-.13,3.27,0,.21c.43,1.88.43,1.88.56,2.09l-.22.47a8.86,8.86,0,0,0-.38,2.29c.13,1.83.26,3.83.26,6.3l.17,5.19,0,1.06c0,1.44,0,2.42,0,3.19a13.58,13.58,0,0,0,.68,3.91,19,19,0,0,0-.08,2.09l.12,3a11.13,11.13,0,0,1,.26,1.53c.13.51.21.94.21.94.26,4.25.26,4.25.38,4.63.13.73.22,1.28.26,1.75a10.21,10.21,0,0,1,.08,1.06c0,.38.13.89.22,1.53s.21,1.07.29,1.66a58.4,58.4,0,0,0,1.45,6.42c.21.51.3.9.38,1.11.64,3.36.68,3.57,1.19,4.38.22.51.3.89.43,1.15.47,1.19.93,2.38,1.53,3.83l.26.34c.25.34.51.85.85,1.4l.55.93v.05a2.62,2.62,0,0,0,1.62,1.53l2.8.38c2.13,1,2.17,1,2.64,1a3.66,3.66,0,0,0,1.87-.59c.38-.22.72-.43,1.11-.68a5,5,0,0,0,2.76-1.49c.09,0,.13-.13.21-.17a27.08,27.08,0,0,0,5.36-7.11,7.56,7.56,0,0,1,1.15-2.12,17.21,17.21,0,0,0,2.55-5.36l.21-1.28V228c.34-.64.6-1.11.81-1.49s.3-.55.43-.81.17-.51.34-1c0,.3,0,.55,0,.81l-.22,2.89v.51c.09.64.13,1.11.17,1.36v.05a16.16,16.16,0,0,0-.51,2.08v.08a5.14,5.14,0,0,0-.17,1.37l0,.46c.09.6.17,1,.22,1.36v.05c.08.51.08.72.12.93s0,.34-.08.47a26.37,26.37,0,0,0-.43,3.27l.09,1c.21.8.25,1.1.34,1.31-.13.51-.17.94-.26,1.24a5.38,5.38,0,0,0-.17,1.1,10.36,10.36,0,0,0,.17,1.53c.13.81.22,1.07.26,1.62,0,.21,0,.55.08,1a6.41,6.41,0,0,0,.43,1.44c.77,1.83,2.38,3.45,4.25,3.45a.31.31,0,0,0,.17,0c1.45-.17,4.21-3.15,4.47-3.75l1.06-2.08.3-.6c1.57-2.42,1.62-2.46,1.79-3l.17-.63.51-2.13h0v0l.34-.38a4.4,4.4,0,0,0,1-2.9,3.87,3.87,0,0,0-.47-1.78c-.6-1.07-.89-1.62-1.06-2a2.23,2.23,0,0,1-.22-.85c-.21-2.09-.34-3.28-.34-3.49l.05-2.51v0l0-2.77.08-.72.17-1.15v-2.42a3.64,3.64,0,0,0,.09-.68c.42-2.85.64-4.68.76-5.7l.39-3.87a33.06,33.06,0,0,1,.34-6.12,18.5,18.5,0,0,0,.29-2.13c0-.55.09-1.11.09-1.66L494,198l.08-.77a8.29,8.29,0,0,1,.22-1.91,10.21,10.21,0,0,0,.38-2.47,24.87,24.87,0,0,1,.34-3.06c.34-1.75,1-6.64,1-7.27a3,3,0,0,0-.09-.73c.09-.85.13-1.57.22-2.34s.08-1.44.17-2.17v-.12a9.07,9.07,0,0,0,.42-2.6,3.45,3.45,0,0,1,.09-1L497,173c.22-1.06.34-1.91.47-2.85.13-.55.22-1.15.3-1.7s.21-1.19.3-1.62.3-1.4.55-2.93l.51-3.06c.13-1.07.3-2.13.43-2.81,0-.13,0-.21,0-.3.08-.89.25-1.91.42-3l.13-.93,0-.26c.3-2,1.83-11.82,1.83-12.71,0-.22,0-.22-.12-1.75v0c0-.17.08-.55.17-1.15l.63-.25.6-.39c.21-.25.21-.25.59-.34l.77-.17.47-.55a11.61,11.61,0,0,1,1-.89l.81-.17c.55,0,1.36-.17,3.23-1.41l.55-.25h.51a1.35,1.35,0,0,0,.64-.13,1.26,1.26,0,0,0,.6-.3l.25-.17H513a3,3,0,0,0,1.87-.72l.34-.3s.08-.08.08-.12c.34.08.51.38.51,1.14a13.81,13.81,0,0,1,0,2,1.72,1.72,0,0,1,0,.47l-.13.76a8.1,8.1,0,0,0-.13,1.24l.21,1.78,0,.47a20.07,20.07,0,0,0-.51,4.42c-.13,1.49-.13,2.39-.13,2.64-.13,1.49-.26,2.72-.34,3.7s-.17,1.7-.26,2.25-.08,1-.08,1.24a3.36,3.36,0,0,0,0,.51,2.94,2.94,0,0,0,.21,1.19c.17.85.25,1.15.25,1.23a7.51,7.51,0,0,1-.21,1.32,8.73,8.73,0,0,1-.21.85l-.77,4v2.3l-.42,7.82-.26,4.25-.17,2.94c-.12,3.87-.38,7.31-.63,10.42l-.09,4.63c0,.94-.13,1.83-.17,2.73-.09,1.53-.13,2.93-.17,4.25,0,1.06,0,2,0,2.89-.13,2.42-.26,5.7-.39,10.25.26,2.08.26,2.08.26,2.25v.85c-.09.64-.13,1.15-.17,1.58a27.36,27.36,0,0,0-.21,4.25v.38l-.09,1.75a3,3,0,0,0,0,.85v.17a1.82,1.82,0,0,1,.09.34,8,8,0,0,1,.34,1.91l.08.47c0,.09.05.13.05.21s0,.47.12,1.28l-.12,2.3a14.33,14.33,0,0,0-.13,2.46,10.14,10.14,0,0,0,.13,2.81,7.2,7.2,0,0,0,.25,2.13,13.28,13.28,0,0,0,.13,2.55,1.32,1.32,0,0,0,.17.42,2.19,2.19,0,0,0,.13.39c.21.55.25.76.3.89-.17,1.1-.26,2-.34,2.55,0,.43,0,.72,0,.85s.94,6.63,3.7,6.63a3.07,3.07,0,0,0,2.64-1.82,4.16,4.16,0,0,1,.59-.9,3.76,3.76,0,0,0,.81-.63,6.52,6.52,0,0,0,2.13-4.13,11.29,11.29,0,0,0,.13-1.7v-.81c-.09-.72-.17-1.28-.22-1.74a17.22,17.22,0,0,1-.17-2.34l.47-17.27,0-.85-.25-3.15a.61.61,0,0,0,.08-.25,7.21,7.21,0,0,0,.77-2.38c.13-.47.17-1.07.38-5.45.13-1.87.56-7.18.81-10,.09-.55.13-1,.17-1.32s.13-1.57.21-2.93.26-2.94.26-3.07l-.13-2.85a72.87,72.87,0,0,0,2-12.41v-1l.13-.39c0-.38.08-.68.12-1,.09-1,.17-1.61.43-4.25a.39.39,0,0,0,0-.21l.09-1.32.12-.64a21.66,21.66,0,0,0,.56-4.46,8.8,8.8,0,0,1,.08-2,38.78,38.78,0,0,0,.64-4.68,7.67,7.67,0,0,1,.34-2.72,17.86,17.86,0,0,0,.51-3.91,19.34,19.34,0,0,1,.21-4.26,58.47,58.47,0,0,0,.38-6.37,21.15,21.15,0,0,0-.76-4.64l-.6-3c0-.26-.08-.47-.08-.51v-1.66h-.89a1.92,1.92,0,0,1-.13-.17,5.12,5.12,0,0,1-.43-.64,20.55,20.55,0,0,1-1.1-1.78l1.36.12h.21l.55.05a2.69,2.69,0,0,0,1.53-.64l.17-.09a18.4,18.4,0,0,0,2,.6l1.19.25.26.09,1.62-.17A13.62,13.62,0,0,0,539,131c1.15,0,2.51-.64,2.51-3.7a24.66,24.66,0,0,0-.34-4.73,28.3,28.3,0,0,0,.34-3.65c0-3.66-.51-6-1.27-7.32a2.94,2.94,0,0,0-2.68-1.87h-.43l-.76.43a7.13,7.13,0,0,0-2-1.32l-1.06-.05-1.11-.08-.55.51-1-.25h-.47c-.17-.09-.34-.22-.68-.43l-.38-.26h-.94l-.17.09a3.18,3.18,0,0,0-.64.17,2.49,2.49,0,0,0-2.08-.81l-.85.13-1.28-.13-.25,0a2.56,2.56,0,0,0-1.28.42h-.51l-2.89.56-1.32-.17-.25,0a15.44,15.44,0,0,0-2.9.72l-.68.34a1.7,1.7,0,0,0-.42.26,2.76,2.76,0,0,0-1-.13,21.86,21.86,0,0,0-4.08.68c-1.11.34-2.26.68-3.49,1.19-.17.09-.3.13-.47.21l0-.21,0-2.85-.09-.89a2.37,2.37,0,0,1,0-.51c0-.51-.09-.89-.09-1.4-.29-4.09-2.63-4.39-3.36-4.39-1.27,0-2,.73-3.06,2l-.38.43a12.15,12.15,0,0,0-1.87,1.7c-1.28,1.36-1.62,2.63-2.43,5.78a22.51,22.51,0,0,1-.8,4.13c-.13.59-.26,1.4-.6,3.7l0,.46a33,33,0,0,1-.6,3.45,20.73,20.73,0,0,0-1.1,5.19,29.05,29.05,0,0,0-.64,2.89l-.6,2.81c0,.12,0,.21,0,.29s0,.3,0,.43c-.21,1.66-.38,3-.51,4.25-.38,2.94-.64,4.94-1,7.36-.13,1.57-.38,3.57-.72,5.87-.05.51-.13,1-.17,1.49a1.19,1.19,0,0,0,0,.42,5.36,5.36,0,0,0-.09,1.15l-.13,1c-.08.51-.17,1-.08.85L485,158l-2.12,13.74c-.09.42-.13.85-.18,1.23-.42,2.55-.72,4.81-.85,6.76-.25.94-.46,1.83-.63,2.68l-.26,1.07a30.21,30.21,0,0,1-1.19,5.91,18.08,18.08,0,0,0-.77,3.7l-.17,1.32a17.33,17.33,0,0,1-.38,2.33,41.55,41.55,0,0,0-1.27,5.28s0,.13,0,.17a17.34,17.34,0,0,1-.76,3.7l-.21.76a6.81,6.81,0,0,0-.34,1.15c-1,2.68-2,5-2.85,7.27l-1.07,3.11a4.84,4.84,0,0,0-.64,1.83,3.1,3.1,0,0,1-.59,1.36l-.72.76a4.18,4.18,0,0,0-1.15,1.11,9.76,9.76,0,0,1-1.07,1c-.38.26-.55.26-.55.3a1.5,1.5,0,0,1-.42-.3,10.12,10.12,0,0,1-1.66-1.78c-.13-.22-.55-1.07-1.19-2.47-.05-.09-.09-.21-.13-.3-.38-1.06-1.91-6-2.3-7.82s-1.06-5.79-1.53-9.7c-.13-1.45-.3-2.89-.38-4.25-.21-2.22-.34-4.21-.34-5.53l-.3-5.28-.08-1.87c-.13-2.85-.13-2.85-.22-6.25,0-.64,0-1.19,0-1.79,0-1.27.08-2.51.21-4.25,0-.47,0-.93.08-1.44l-.12-1.45.12-2.64-.34-3.1v0l0-.05.12-.38c.3-1.28.64-3.53.81-5a.68.68,0,0,1,0-.3c0-.21.05-.42.05-.59a15.18,15.18,0,0,1,.12-2.68c0-.09,0-.13,0-.17v-.09a22.87,22.87,0,0,0,.34-3.82,6.3,6.3,0,0,0-.13-1.62c-.13-.81-.13-1.32-.17-1.32a39.5,39.5,0,0,0,.81-5.74l.08-.81c.09-1.87.3-4.12.56-6.93,0-.6.12-1.19.17-1.83-.09-2.59-.09-4-.13-4.55-.6-2.76-1.87-7.61-3.62-8.68l-.59-.59a5.67,5.67,0,0,0-.73-1.28l-.21-.68c-.59-2.76-1-5-3.15-5.31a1.53,1.53,0,0,0-.63-.09c-1.41,0-2.43,1.28-3.58,4.3a8.29,8.29,0,0,0-.42,1.1c-.77,1.87-.81,2.51-.94,5.91l-.08,1.37-.38,5c-.09,1.88-.17,3.7-.22,5.32s-.12,3.19-.17,4.25v1.15c0,.94-.25,4.93-.59,8.85a9.65,9.65,0,0,0-.13,1.7l.26,3V154l-.26,3.45V158l.13,3.28-.26,2.89.13,2-.13,2.21.13,3.53,0,1Z"/><path d="M665.17,125.75a25.73,25.73,0,0,0-.3-3.15,21.31,21.31,0,0,0,.34-3.65c0-3.66-.47-6-1.23-7.32a3,3,0,0,0-2.73-1.87h-.42l-.72.43a6.79,6.79,0,0,0-2-1.32l-2.17-.13-.51.51-1.07-.25h-.46l-.64-.43-.43-.26h-.89l-.21.09a4.14,4.14,0,0,0-.64.17,2.46,2.46,0,0,0-2.08-.81l-.85.13-1.54-.17a1.26,1.26,0,0,0-.38,0,3.4,3.4,0,0,0-.89.38h-.47l-2.89.56-1.32-.17-.3,0a14.23,14.23,0,0,0-2.85.72l-.68.34a1.7,1.7,0,0,0-.42.26,3,3,0,0,0-1-.13,22,22,0,0,0-4.13.68c-1.1.34-2.25.68-3.48,1.19l-.73.34-.08,0h-.13l0-.08-.47-.3-2.81-1.78c-1-.73-1.27-.9-1.91-.9l-.51.09a1.93,1.93,0,0,1-.47.08c-2.42-.81-2.42-.81-2.93-.81-2.09,0-2.81.3-5.15,1.37-.3-.09-.76-.22-1.32-.34h-.59c-1.24,0-4.47,1.27-6.55,2.29l-.73.38a7.54,7.54,0,0,0-.89.56l-.81.93L601,114a12.85,12.85,0,0,0-1.53,1.75c-.55,1-.94,1.74-1.15,2.08l-.85.64,0,0a4.25,4.25,0,0,0-.81,1l-.34.6a5,5,0,0,0-.85,1.57,4,4,0,0,1-.68,1.06l-.43.22-.29.12a3.14,3.14,0,0,0-1.49,1.49l-.68.77c-.09.13-.22.25-.39.47a3.26,3.26,0,0,0-1,1.06l-.94,2.13-.85,2.55a2.49,2.49,0,0,1-.21.81l-.22.42c-.51.43-.59.68-1.14,1.79a.39.39,0,0,0-.09.21c-.47.89-.89,1.79-1.32,2.51a6.21,6.21,0,0,0-.72,1.74,35.57,35.57,0,0,0-.81,4.38c-.64,4.47-1.15,7.83-1.49,10.34-.25,1.78-.46,3.15-.59,4.25a30.71,30.71,0,0,0-.51,5.27c0,.81-.17,2.94-.6,6.38v.13c-.25,2.09-.55,4.64-1,7.66l.13,2.34-.59,4.21c.08,1.78.08,1.78.08,2.17l0,.59-.59,4.3c-.17,1.36-.3,2.34-.51,4.29v2.34l-.13,2c-.08.64-.13,1.15-.17,1.45a3.06,3.06,0,0,0-.09.76,5.53,5.53,0,0,1-.12,1.36,8,8,0,0,0-.09.81,5.79,5.79,0,0,0,0,.89c0,1.66,0,3.15-.09,3.79a19.44,19.44,0,0,0-.38,4.59,16.68,16.68,0,0,1-.51,4.25c0,4.3,0,4.77.26,5.11.25.64.34.89.38,1s-.17.85-.6,2.29c0,.22-.08.39-.12.56-.22-1.58-.81-3.23-2.64-3.23a2,2,0,0,0-1.83.93,1.2,1.2,0,0,0-.21.26,3.3,3.3,0,0,1-.34.55,6.71,6.71,0,0,0-3.11,2.59l-.21.43A1.82,1.82,0,0,1,568,228c-.34,0-1,0-3.83,2.39A38.07,38.07,0,0,1,560,232.2a8.06,8.06,0,0,0-2.13.89,4.46,4.46,0,0,1-1,.22c-.39.08-.9.17-1.54.25s-1.53.26-2.55.39a12.49,12.49,0,0,1-.81-4.34c.09-1.36.13-2.51.13-3.49v-1.83c0-1.36,0-1.87.21-4.25,0-.13.05-.3.05-.47l-.13-2a22.21,22.21,0,0,0,.47-3.06l.08-1.66a19.43,19.43,0,0,0,.56-3.45c.21-3,.59-6.25.68-7.1v0a37.89,37.89,0,0,0,1.27-9.1l0-.94c.85-4.55,2.72-17.22,2.72-18.92l-.13-3a12.16,12.16,0,0,0,1.07-4c0-.08,0-.21,0-.34s0-.93,0-1.61l.17-.69a11.22,11.22,0,0,0,.51-2.38c.17-1.19.3-2.25.39-3.23.21-1.83.34-3.32.34-4.25v-.26a29.52,29.52,0,0,1,.34-5,46.11,46.11,0,0,0,.76-5.52l-.13-1.88a3.51,3.51,0,0,1,.39-1.1l.34-.94.25-.68,0-.42a26.44,26.44,0,0,0,.3-3.15,2.19,2.19,0,0,0,0-.51v-1.91c.13-2,.3-4,.26-4l.21-.6c.21-1.57,1-10.12,1-11.48,0-.85,0-.89-1.36-4.68a2.54,2.54,0,0,0-.17-.51,3.24,3.24,0,0,0-2.72-2.34,4.35,4.35,0,0,0-2.77.64l-1.49.89a5.37,5.37,0,0,0-1.87,1.32,11.3,11.3,0,0,0-1,1.49,39.87,39.87,0,0,0-2.76,8.46c-.09.39-.21.77-.3,1.19l-.21,1.15a2.63,2.63,0,0,0-.34.85,44.64,44.64,0,0,0-2.38,10c-.09.68-.17,1.4-.26,2.25-.08.68-.21,1.37-.34,2-.21,1.49-.51,2.9-.76,4.34a37.22,37.22,0,0,1-.47,5l-.13,1.15c-.3,1.91-.47,3.19-.6,4.21s-.29,1.91-.42,2.81l-.17,1.44-.64,5.44a11.34,11.34,0,0,1-.38,2.81,10.73,10.73,0,0,0-.26,2.38c-.21,2.38-.21,2.38-.34,3.24,0,.51-.08.85-.08,1.1a4.66,4.66,0,0,0,0,.72c0,.22,0,2.43.89,3.11a3.19,3.19,0,0,0,.38.42c.77.9.77,1,.81,1.75-.21,1.49-.34,2.72-.43,3.61-.08.68-.12,1.15-.21,1.7,0,.26-.13,1.92-.25,2.9l0,2.29c-.13,1.11-.21,1.75-.26,2.17a10.34,10.34,0,0,0-.12,1.28l-.47,5-.09,1.14c-.12,1.41-.21,2.39-.25,3.11a9.87,9.87,0,0,0-.13,1.83c-.08.38-.13.59-.21,1.1l-.21,2.68a5.72,5.72,0,0,0,.12,1.24v.59a9.73,9.73,0,0,1-.59,2.81c-.13.72-.51,3.91-.9,7.57-.12,1.4-.29,2.85-.42,4.25-.3,2.81-.55,5.36-.64,6.76a57.28,57.28,0,0,1-.47,5.74l.22,2.26-.13,4a7.22,7.22,0,0,0,0,.81,22.25,22.25,0,0,0,.68,4.25,8.36,8.36,0,0,0,2,4.08,2.07,2.07,0,0,0,1,.56h.34l.38.51A13.27,13.27,0,0,1,544.3,255l.34.64,2,.38h3.4a5.9,5.9,0,0,0,2-.43,5.45,5.45,0,0,0,1.53-.68l.38-.34s0-.08.09-.12a.27.27,0,0,1,.17,0l1,.08,3.7-.89.42-.13a4,4,0,0,1,1.41-.63,4.29,4.29,0,0,0,3.14-1.71l.47-.72a1.63,1.63,0,0,0,.43-.38,10.6,10.6,0,0,0,4.63-2c.17-.13.38-.34.6-.51l1.78-1.66a12.3,12.3,0,0,0,2.21-2.25l.51-1a8.09,8.09,0,0,1,.43-.85l.09-.09c.21-.25.42-.47.59-.68a9,9,0,0,0,.89-1.23l-.12,3.44c0,.17,0,.38,0,.6.17,1.36.55,3.48,2.13,4.25a2.52,2.52,0,0,0,1.31.3s0,0,.09,0a18.13,18.13,0,0,0-.3,2.25,5.27,5.27,0,0,0,4.81,5.11H585l.38.21,2.17-.21,1.79.21h.08l.9-.34,1.36-.47a7.7,7.7,0,0,0,1.36.17,9.06,9.06,0,0,0,2.08-.42c3.11-.85,8-2.89,9.15-4.13l.63-.64c.3-.29.3-.34.64-.46l.34-.17a5,5,0,0,0,1.53-.94c.21-.17.51-.34.77-.51a18.42,18.42,0,0,1,2.34-1.23h.12c1.49.63,4-1.58,5.41-3a8.46,8.46,0,0,0,.93-1l.85-1.11.47-.29a11.39,11.39,0,0,0,1.23-.73c.68-.38,1.32-.81,2-1.23s1.4-.89,1.91-1.23a3.59,3.59,0,0,0,1.36-1.07l.51-.59c.09-.13.22-.26.34-.43a8.16,8.16,0,0,0,2.13-3L628,233l.43.68,1.15-3.23a6.83,6.83,0,0,1,.89-1.75c.85-.93,1.11-3.27,1.15-4.42V224a8.07,8.07,0,0,0-1-3.91,3.48,3.48,0,0,0-2.94-2,4.57,4.57,0,0,0-3.36,1.49,4.25,4.25,0,0,0-1.23,2.25,1.28,1.28,0,0,0-.21.47,2.06,2.06,0,0,0-.47.47,5.67,5.67,0,0,1-2.76,2,3.82,3.82,0,0,0-.9.38s-.08,0-.13.08l-.46.39a13.16,13.16,0,0,0-1,1.19,3.71,3.71,0,0,0-1.45,1.1,4.61,4.61,0,0,0-.38.3,4.57,4.57,0,0,1-.68.47,25,25,0,0,0-2.77,1.28,10.57,10.57,0,0,0-1.66,1.1c-.25.13-.55.3-1.4.81l-1.45-.94-.76.34a23.66,23.66,0,0,1-2.6,1,5.86,5.86,0,0,0-1.4.55h-.64l-.46.43a10.89,10.89,0,0,1-1,.81H600a5.68,5.68,0,0,0-2.25.25c-.68.22-1,.34-1,.34h-.21c-.05,0-.05,0-.09,0a9.06,9.06,0,0,0-1-.34,1.5,1.5,0,0,0-.42,0l-4,.25-3,.17a10.52,10.52,0,0,1,.09-1.7l.08-.59c.09-1.24.17-2.3.17-3.24a14.68,14.68,0,0,1,.21-3.78c0-.34.13-.68.17-1a32.37,32.37,0,0,0,.47-4.25v-.34c-.21-2.09-.21-2.09-.25-2.3l.64-2.72.08-1.91s.13-.77.3-1.54c0-.25,0-.55.08-.8.09-1,.13-1.87.13-2.38a7.67,7.67,0,0,1,.13-2.13c.25-1.4.38-2.55.51-3.4l0-.3.09-.64a17.77,17.77,0,0,1,.42-3.61,1.89,1.89,0,0,1,.85-1.28,18.77,18.77,0,0,1,1.92-1.32l.42-.38c.43-.51.68-.85.89-1.06,1.32,0,1.79,0,2.34-.39a3.31,3.31,0,0,1,.51-.21l.47-.08c.43-.13,1.58-.52,2.55-.86a7,7,0,0,0,1.36-.59c.26-.17.39-.3.64-.3a22.81,22.81,0,0,0,2.34-.17,17.07,17.07,0,0,0,2.89-.59,24.88,24.88,0,0,0,3.19.34l.64-.13c.26-.13.47-.21.72-.34.43-.13.68-.21.9-.3a2.89,2.89,0,0,0,1.15.51c.46.17.76.26,1,.34a4.21,4.21,0,0,0,.93.26,2.58,2.58,0,0,0,1.45.46c2.55,0,3.83-4.21,3.95-6.42l.09-1.53a7.76,7.76,0,0,1,.13-1.32,15.84,15.84,0,0,0,.38-4.76c0-.21-.09-.38-.13-.6a30.91,30.91,0,0,0-1.15-4.25,2.86,2.86,0,0,0-2.29-2.08,8.21,8.21,0,0,1-1.45-.56c-.38-.17-.64-.25-.85-.34a1.9,1.9,0,0,0-.85-.21l-1.15.13a4.19,4.19,0,0,1-.64.25,4.41,4.41,0,0,0-1.78-.38,3,3,0,0,0-1.49.3c-1.41.3-2.64.47-3.7.64l-.77.12-.51.17a3,3,0,0,1-.42.13c-.22,0-.39.09-.64.13-.43.13-1,.26-1.83.51a11.23,11.23,0,0,0-1.7,1,1,1,0,0,0-.26.17c-.42.34-.89.72-1.4,1.15a5.5,5.5,0,0,1-1.06.17l-.43.08-.38.3a20.76,20.76,0,0,0-1.87,1.66,5,5,0,0,0-1,.89,11.73,11.73,0,0,0-1.41,2.39,2.12,2.12,0,0,0-.46.59l.21-1.91c0-.34.08-.73.13-1.07.12-.63.21-1.31.42-2.08l.3-2.17.64-4.68c.12-.55.21-1.15.38-1.74a46.6,46.6,0,0,0,.42-4.85c.17-.55.3-1.1.43-1.66l.25-1.27.13-.77c.13-.93.26-1.74.39-2.47s.21-1.31.25-1.78a3.64,3.64,0,0,0,.09-.6,33.56,33.56,0,0,0,.85-8.72c0-.25.21-.85.25-1a2,2,0,0,1,.09-.22A26.42,26.42,0,0,0,600.1,139a8.76,8.76,0,0,0,.21-1.11c.43-1.91.64-2.55,1.11-3.1a2.65,2.65,0,0,1,.38-.43l.25-.17a1.72,1.72,0,0,0,.81-.34h.51a2.66,2.66,0,0,0,2.17-.72l.68-.47c.3-.17.43-.34.43-.38a3.63,3.63,0,0,1,1.74-.51l.38-.08c.73-.17,1.58-.39,2.51-.68a21.41,21.41,0,0,1,5.4.63,8.62,8.62,0,0,0,1.41.6,3.08,3.08,0,0,0,.93.21l.56.72a6.45,6.45,0,0,0-.17,1.71c0,2.38,1.23,4.08,3.19,4.08l.76-.17a9.52,9.52,0,0,1,2-.77l1.06-.42.6-.39a.72.72,0,0,1,.55-.34l.77-.17.51-.55a6.63,6.63,0,0,1,1-.89l.81-.17a2.74,2.74,0,0,0,1.19-.3,11.53,11.53,0,0,0,2-1.11l.59-.25h.47a2.21,2.21,0,0,0,1.27-.43l.22-.17h.25a3.11,3.11,0,0,0,1.92-.72l.29-.3.13-.12c.3.08.51.38.51,1.14s0,1.36,0,2a4.39,4.39,0,0,1-.09.47l-.12.76a8.1,8.1,0,0,0-.13,1.24l.21,1.78,0,.47a18.71,18.71,0,0,0-.46,4.42c-.13,1.49-.13,2.39-.13,2.64-.09.81-.17,1.53-.21,2.17s-.13,1.06-.17,1.53a17.84,17.84,0,0,1-.26,2.25c0,.64-.08,1-.08,1.24a2.7,2.7,0,0,0-.05.51,2.82,2.82,0,0,0,.22,1.19c.21.85.25,1.15.29,1.23a10.5,10.5,0,0,1-.25,1.32,8.73,8.73,0,0,1-.21.85l-.47,2.38-.3,1.62v2.3l-.43,7.82-.25,4.25-.17,2.94c-.13,3.87-.34,7.31-.6,10.42l-.12,4.63c0,.94-.13,1.83-.17,2.73-.09,1.53-.13,2.93-.17,4.25,0,1.06,0,2,0,2.89-.08,2.42-.21,5.7-.34,10.25.22,2.08.22,2.08.22,2.25l0,.85c-.09.64-.13,1.15-.17,1.58a27.36,27.36,0,0,0-.21,4.25v.38l-.13,1.75a4.64,4.64,0,0,0,.17,1.36,9,9,0,0,1,.3,1.91l.08.47c.09.21.09.21.17,1.49l-.08,2.3a14,14,0,0,0-.17,2.46,11,11,0,0,0,.12,2.81,14.2,14.2,0,0,0,.26,2.13,13.28,13.28,0,0,0,.13,2.55,2.74,2.74,0,0,0,.21.42c.25.81.38,1.11.42,1.28-.17,1.1-.25,2-.34,2.55,0,.43,0,.72,0,.85s.64,4.51,2.43,6.08a1.9,1.9,0,0,0,1.27.55,2.79,2.79,0,0,0,2-1,2.22,2.22,0,0,0,.6-.8,7.73,7.73,0,0,1,.55-.9,6.19,6.19,0,0,0,1.79-1.7,7,7,0,0,0,1.15-3.1.19.19,0,0,0,0-.09c0-.42.08-.89.08-1.36v-1c-.08-.93-.17-1.62-.21-2.13a14,14,0,0,1-.13-1.95l.13-5.23v-.05l.34-12.84-.21-3.15a9.17,9.17,0,0,0,.85-2.63c.08-.47.13-1.07.34-5.45,0-.59.08-1.53.17-2.63.25-3,.64-7.23.81-8.68,0-.55.47-5.78.51-6l-.13-2.85a66,66,0,0,0,1.57-8.54c.22-1.54.34-2.85.39-3.87a6.12,6.12,0,0,1,0-1l.08-.39c0-.38.09-.68.13-1,.13-1,.21-1.61.47-4.25a.39.39,0,0,0,0-.21l0-1.32a24.25,24.25,0,0,0,.68-5.1,12,12,0,0,1,.09-2,38.78,38.78,0,0,0,.64-4.68c0-.89.08-1.36.12-1.7a5.36,5.36,0,0,1,.22-1,19.82,19.82,0,0,0,.46-3.23,2.94,2.94,0,0,0,0-.68,19.34,19.34,0,0,1,.21-4.26,50.49,50.49,0,0,0,.42-6.37,21.71,21.71,0,0,0-.46-3.41c-.09-.46-.22-.89-.3-1.23l-.64-3c0-.26-.08-.47-.08-.51v-1.66h-.85a21.69,21.69,0,0,1-1.66-2.59l2.08.17a2.47,2.47,0,0,0,1.53-.64l.17-.09a25.48,25.48,0,0,0,3.19.85l.3.09,1.61-.17a13.48,13.48,0,0,0,3.83.77.61.61,0,0,0,.3-.05c1.06-.08,2.17-.85,2.17-3.65C665.21,126.64,665.21,126.18,665.17,125.75Z"/><path d="M677,253.17a4.1,4.1,0,0,1,.43-1.24h.25l.47-.76a6.39,6.39,0,0,0,.81-2.08,3.79,3.79,0,0,0,.12-.94,1.51,1.51,0,0,0,0-.47c0-1,0-2.38-.09-3.78,0-.3,0-.6-.08-.94a20.36,20.36,0,0,0-.26-2.25,2.64,2.64,0,0,0-.08-.6,2,2,0,0,0-.13-.42,3.58,3.58,0,0,0-.21-.94,4.42,4.42,0,0,0-.22-.64.14.14,0,0,0,0-.08,7.57,7.57,0,0,1-.38-1.58,4.18,4.18,0,0,0-.6-1.7c0-.08,0-.12-.08-.21s-.13-.3-.22-.47a12.5,12.5,0,0,0-2.93-4.29,5.39,5.39,0,0,0-3.74-1.53c-2.64,0-4,3.95-4.21,6.59-.13,1.36-.22,2.34-.3,2.76s-.17.56-.21.77v0a3.86,3.86,0,0,0-.22,1.28l.13,3.57a2,2,0,0,0,0,.21c.05.17.05.3.09.43s.08.42.13.59a22.77,22.77,0,0,0,.93,3.66,2.23,2.23,0,0,1,.17.43,12.48,12.48,0,0,0,1.32,2.42,0,0,0,0,0,0,0c.85,1.36,3.79,5,6,5A3.43,3.43,0,0,0,677,253.17Z"/><path d="M693.41,230.84c-.13,2.51-.13,2.51-.13,3.53v7a15.2,15.2,0,0,1-.17,2.55,3.85,3.85,0,0,1-.09.81,11.93,11.93,0,0,1-1.95.89,4.83,4.83,0,0,0-2.09,2.46c0,.05,0,.05,0,.09a9.22,9.22,0,0,1-.81,1.11c-.25.51-.55,1-1,2a4.44,4.44,0,0,0-.42.47,3.85,3.85,0,0,0-1.28,2.93,6.77,6.77,0,0,0,1.7,4.51l.94.51a5.05,5.05,0,0,0,1.62,1.66,1.79,1.79,0,0,0,.93.26h.51l.68-.17c.73-.34,1.24-.6,1.62-.77a5.28,5.28,0,0,0,.59,2.64l.26.47c1.66,2.33,2,2.76,3.19,2.76.47,0,.72-.13,1.4-.6v.05l.77.12c1.61,0,2.89-1.91,3.1-3.27l.34-3.06.34-2.09a5.71,5.71,0,0,1,.94-.25c2.12-.77,3.91-1.4,4.55-1.66.13,0,.21-.09.25-.09a5.53,5.53,0,0,0,2.47-.85,1.7,1.7,0,0,1,.47-.17l.51-.08s.08,0,.13,0a1.37,1.37,0,0,1,.42-.09l4.34-2.08a5.91,5.91,0,0,0,.64-.21,53.62,53.62,0,0,0,7.53-4c.93-.55,1.82-1.15,2.55-1.62.47-.29.85-.59,1.15-.8a53.41,53.41,0,0,0,6.12-5.07c.21-.21.43-.38.64-.59,3.44-3.23,5.65-8.8,5.65-14.25a9.81,9.81,0,0,0-.08-1.53,29.07,29.07,0,0,0-.47-4.25c-.64-3.53-1.87-7-3.49-8.89l-2.12-2c-1.15-1.06-2.13-2-3.06-2.89L731.26,205a16.64,16.64,0,0,1-2.68-2.39l-.05,0-.42-.3a.23.23,0,0,1-.13-.08c-2-1.32-3.4-2.21-4.59-2.89l-.47-.3a11.53,11.53,0,0,0-1.36-1.06,9.65,9.65,0,0,0-2.21-1.32,9.93,9.93,0,0,0-2.13-.77l-1.61-.93h-.05a2.63,2.63,0,0,0-.93-.9c-.17-.08-.3-.21-.34-.17a3.31,3.31,0,0,0-1-.85l-.73-.42c-.93-.34-2.34-2.51-2.34-4a1.75,1.75,0,0,1,.52-1.49c.59-.64,2.25-2.3,3.57-3.91a4.48,4.48,0,0,0,.51-.77l.42-.25a22.74,22.74,0,0,0,4-3.36c.43-.56.81-1,1.06-1.28a2,2,0,0,1,.26-.3c.21-.25.34-.42.47-.59a31,31,0,0,0,2.59-2.85c.43-.34.72-.6,1-.81.56-.51,1.07-1,2.43-2.38.21-.17.42-.43.68-.68.38-.55.72-1,1-1.4.47-.64.81-1.11,1.1-1.45a5.89,5.89,0,0,1,.51-.6c.13-.08.26-.12.39-.21a4.06,4.06,0,0,0,1.53-1.53,11,11,0,0,1,1.7-1.91l.34-.47a6.2,6.2,0,0,1,1.15-1.79,18.79,18.79,0,0,0,2.17-2.55,37.25,37.25,0,0,0,2.8-4.25c.51-.9,1-1.87,1.49-2.89a41.94,41.94,0,0,0,2.13-5.11,9.58,9.58,0,0,0,.34-.93,39,39,0,0,0,1.27-5.79c.22-1.49.39-3,.47-4.25,0-.47,0-.85,0-1.23l0-1.19-.21-3.62a9,9,0,0,0-.94-4.25s0,0,0-.09c-.25-.55-.55-1.15-.89-1.87l-.43-.93h-.12c-.09-.22-.17-.43-.26-.6l-2.93-3a5.53,5.53,0,0,0-1.58-1.15,2.38,2.38,0,0,0-1.15-.34h-.42A6.9,6.9,0,0,0,736,115a7.37,7.37,0,0,0-5.11-2.21h-.42l-.34.17,0,.05c-.05,0-.09,0-.13.08-.26-.17-.6-.47-.94-.72l-1.23-.77-.09,0-1,0-3.82-.42a2.7,2.7,0,0,0-2.05.68,1.87,1.87,0,0,0-.29.25,2.21,2.21,0,0,0-1.19-.34l-2.26.26c-.13,0-.3,0-.42,0a45.93,45.93,0,0,0-10,1.91c-1.19.39-2.46.85-4.08,1.45s-3.49,1.45-5.83,2.38l-1.61,1.62c-2.51.89-5,2.72-5,4.8v1.41a1.1,1.1,0,0,1-.3.59,3.28,3.28,0,0,0-1,1,3.66,3.66,0,0,0-.93,1.79,3.51,3.51,0,0,0-.22.93c0,.17,0,.39-.12,2.43l0,.51a6.53,6.53,0,0,0-.17,1.53,1,1,0,0,0,0,.34,3,3,0,0,0,2.94,2.76,18.86,18.86,0,0,0,3.78-1l5.7-1.79,3-.94h.47a2.81,2.81,0,0,1-.43.94,5.27,5.27,0,0,1-.47.68,13.24,13.24,0,0,0-1.7,3.28l-.13.29-.46,1.28a13.17,13.17,0,0,0-1.92,3.57c-.08.38-.17.89-.25,1.49-.26,1.15-.34,1.7-.51,2.17-.17.76-.3,1.44-.39,2l-.12.89c0,.42-.13,1.74-.22,2.85,0,.17,0,.38-.08.51a9.25,9.25,0,0,1-.17,1.27,8,8,0,0,0-.26,1.92,2.94,2.94,0,0,0,.17,1.06v0a6.18,6.18,0,0,1,.17,1.28c0,.17,0,.85-.12,1.66l-.34,5.14v1.15l-.22,1.45c-.12.64-.21,1.83-.34,3.66l0,.59-.13,1.66c0,.89-.13,1.79-.17,2.59s-.13,1.54-.21,2.26l-.13,1.74v1.45c-4.42,3.14-6.72,5.36-6.72,8.59a25.17,25.17,0,0,0,1.11,5.74,4.54,4.54,0,0,0,.76.94,10,10,0,0,0,2.22,1.78c1.44.6,1.65,1.07,1.65,2.3v.17l-.12,5.19a2.4,2.4,0,0,0,.29,1.23,5.11,5.11,0,0,1,.34,2.25l.09,1-.17.47c-.17.64-.43,2.17-.68,7.7,0,.68,0,1.4-.09,2.17l.13,1.87v.25ZM712,209.75l.42.08a5.25,5.25,0,0,1,.81.6c1.15.72,1.92,1.19,2.51,1.49.34.21.64.38.72.42a7.19,7.19,0,0,0,1.28.89,5.68,5.68,0,0,1,.81.43,9.13,9.13,0,0,1,1.53.76l.85,1h.3a3.29,3.29,0,0,0,.72.43,20.61,20.61,0,0,1,1.74,1.7l.34.34a3.69,3.69,0,0,0,1.07,1.32c.38.34.59.51.68.59s0,.17,0,.26a13.82,13.82,0,0,0,.47,1.53c.13.3.17.47.21.55a5.58,5.58,0,0,1-.85,2.17,2,2,0,0,1-.25.34l-.81.77h-.26l-1.15,2.21a4,4,0,0,1-.25.42,51.89,51.89,0,0,0-6.85,4.72l-.89,1.2-.38.21a24,24,0,0,0-4.21,2.63l-.35.43a.78.78,0,0,1-.12.21h-.73l0,0-.34.17a7.71,7.71,0,0,1-.76.42h-.6l-1.62.47a2.88,2.88,0,0,0-.59.25,2.09,2.09,0,0,0-.77.47v-.08l.34-2.77.13-1.19A7.67,7.67,0,0,0,705,234l0-1.41.26-1.57a12.51,12.51,0,0,0,.25-2.34c0-.47.26-4.76.85-12.84.13-1.49.26-3.15.39-4.94a24.87,24.87,0,0,1,.46-3.23c.05-.34.09-.68.13-1a11,11,0,0,0,3.23,2.43v0Zm18.63-67.07a10.68,10.68,0,0,1-.81,3.32,2.42,2.42,0,0,1-.3.55v0c-.17.38-.3.72-.42,1s-.3.64-.17.55l-1,1.75c-.39.76-.68,1.4-.94,1.95-.13.38-.3.72-.38,1a3.35,3.35,0,0,1-1.53,2,14,14,0,0,0-2,2c-.3.43-.64.81-.93,1.19s-.6.72-.9,1.06l-.81.94a12.08,12.08,0,0,1-1.48,1.45,19.88,19.88,0,0,1-1.71,2,16.63,16.63,0,0,1-1.74,1.95l0,.05-.72.59a44.81,44.81,0,0,1-5.19,5.1,6.05,6.05,0,0,0,0-.76,10.25,10.25,0,0,1,.21-2.81c.26-1.57.38-2.68.38-2.72l.39-4.08a12.6,12.6,0,0,1,0-1.36,5,5,0,0,0,.17-1.28v-.93a6.66,6.66,0,0,0,1.15-3.49,3.74,3.74,0,0,0,.08-.9,16.64,16.64,0,0,0-.34-2.33c.3-3.58.47-5.62.6-6.77s.08-1.4.08-1.4l.17-.85a11.29,11.29,0,0,0,.47-2.3v-.17l.13-2.63a12.25,12.25,0,0,1,.17-1.62,4.55,4.55,0,0,1,.55-1.57,1.41,1.41,0,0,1,.68-.6,19.91,19.91,0,0,0,3.15-.34,3,3,0,0,0,.64.17,13.54,13.54,0,0,0,2.85.81l.08,0c.94.43,1.19.55,1.45.51a11.4,11.4,0,0,0,1.36.26,11.64,11.64,0,0,1,1.19.72c1,.64,2.25,1.57,3.23,2.25a4.11,4.11,0,0,1,1.49,2,4.72,4.72,0,0,1,.34,1.19v.09A9.86,9.86,0,0,1,730.58,142.68Z"/><path d="M747.33,238.33a8.78,8.78,0,0,1,.56,3.82V243a7,7,0,0,0-.09.94c0,.59,0,1,0,1.1a21.74,21.74,0,0,0,.47,3.15,29.67,29.67,0,0,0,1.36,4.81,2.48,2.48,0,0,0,.55.89,3.53,3.53,0,0,0,2.55,1.57,3.38,3.38,0,0,0,1.79-.55,27.69,27.69,0,0,0,3.06-2.81l.77-.89a11.64,11.64,0,0,0,1.78-3,9.23,9.23,0,0,0,.81-3.57l-.13-.64v0c-.51-1.15-.81-3.11-1-6.42-.17-2.3-.25-5.28-.34-9.11a17.24,17.24,0,0,0,.17-3.31c0-.3,0-.56,0-.77a14.48,14.48,0,0,0,0-2.55c.12-.89.21-1.32.25-1.7s.09-.77.13-1.45c.08-1.15.21-2.17.3-3,0-.21,0-.42.08-.59a41.32,41.32,0,0,0,.26-4.38c-.13-2-.13-2-.13-2.17,0-.38,0-.38.21-3.53l.26-2.6v-.08c.17-1.53.25-2.68.25-3.28a8.28,8.28,0,0,0,0-1c.09-1,.13-1.79.17-2.47a18.57,18.57,0,0,0,.13-3.32,12.17,12.17,0,0,0,.39-3c.12-1.1.17-2,.21-2.67,0-.3,0-.6.08-.77l.17-1.23a8.14,8.14,0,0,0,.13-1.45c.26-2.59.26-2.59.26-2.72a8.9,8.9,0,0,0,.25-1.83c0-.6.09-1,.09-1.28a13,13,0,0,1,.17-1.36c.17-2,.25-2.55.25-2.89v-.34c.13-.93.21-1.83.34-2.59s.51-4.17.51-4.94.26-3.27.47-5.31c.21-1.53.38-2.89.47-3.32.17-.72.34-1.74.51-2.93s.34-2.47.47-3.75c.21-1.7.42-3.27.51-4.29a34.05,34.05,0,0,1,.34-3.87c.21-1.45.25-1.62.34-2.6,0-.12,0-.29,0-.51a45.27,45.27,0,0,1,.93-8.16c.05-.22.09-.43.13-.73a102.66,102.66,0,0,0,1-12.12v-.38c-.12-2.42-1.23-5.74-3.48-5.74a3.92,3.92,0,0,0-2,.76l-.73.43a7.81,7.81,0,0,0-1.74,1.4,3,3,0,0,0-.38.34l-.34.39a8.08,8.08,0,0,0-3.87,2,9.47,9.47,0,0,0-2.34,3.79,39.41,39.41,0,0,0-2,7.14c-.34,1.62-.68,3.49-1.06,5.53-.17.85-.3,1.75-.47,2.64l-.13,1.78,1.62.3-1.79.26-.25.93-.64,2.38c-.17.69-.26,1.11-.39,1.79l-.46,3.32c-.51,4.12-.64,5-.64,5.48v2.43a4.49,4.49,0,0,1-.09.59l-.12.85c-.26,1.66-.39,2.94-.39,3.15l.13,3.4c0,.05,0,.77-.13,2.05a4.31,4.31,0,0,0,.73,2.21l.8.8c.05.43.17,1.28.43,2.47l-.13,3.36c.09.47.17.85.21,1.15.09.72.13.94.13,1.06,0,.3-.13,1.07-.25,2l-.17,1.15c0,.17-.09.38-.13.55a16.38,16.38,0,0,0-.3,3c0,3.28-.17,6.72-.55,12.25-.09,1.06-.17,2.21-.26,3.45,0,.51-.08,1.06-.12,1.61l-.13,2.64-.51,9.87c.25,2.29.25,2.29.25,2.46l0,.21-.39,1.66-.12,3.62-.13,4.25,0,1.28-.22,6.63.13,2.26-.13,2Z"/><path d="M803,149.14c-.46,1.53-1,3.11-1.53,4.64s-1.06,3-1.61,4.25c0,0-.05.09-.05.13a16.41,16.41,0,0,0-.85,2.13l-.63,1.7c-.35.8-.56,1.44-.94,2.12l-.64,1.49c-.38.89-.76,1.83-1.15,2.81-.59,1.4-1.15,2.89-1.74,4.46l-.81,2c-.34.77-.72,1.49-1.15,2.42-.17.39-.34.81-.55,1.32l-.25.9c-.05.12-.17.29-.3.55a2.36,2.36,0,0,0-.68,1.15L789,183.51c-.13.25-.21.42-.3.63l-.51.9c-.51,1.06-1,2.08-1.36,2.93l-.3.6a5.69,5.69,0,0,0-.89,2c-.38.72-.72,1.57-1.11,2.5l-.46,1.11c-.6,1.15-1.24,2.38-1.92,3.79-.38.76-.81,1.61-1.27,2.55-.26.55-.51,1.1-.85,1.7-1,2-2.13,4.51-3.53,7.53-.13.29-.3.59-.43.89a21.43,21.43,0,0,1-1.15,2.55,11.5,11.5,0,0,0-1.66,3.45,1.86,1.86,0,0,0-.12.38,5.9,5.9,0,0,0-.6.81,9,9,0,0,0-1.4,2.21c-.26.51-.51,1.1-.9,2l-1.06,2.25c-.77,1.66-1.11,2.47-1.28,2.85l1.49.68-1.7-.25a10.82,10.82,0,0,0-.72,1.87c-.21.42-.34.76-.55,1.23l-.13.38c-.38,1.19-.72,2.21-1.11,3.19a7.81,7.81,0,0,0-.55,2l-.34,2.76c-.09.9-.17,1.45-.21,1.7l-.09.47s0,.94-.08,1.92a2.62,2.62,0,0,0,0,.85,10.07,10.07,0,0,0-.08,1.53,10.85,10.85,0,0,0,.42,2.72c1.15,3.78,4.34,7.7,7.36,7.7l3.32-.13,2.42-.13,1.36-1,.22-.12a.13.13,0,0,0,.12-.05h0a4.29,4.29,0,0,0,.85-.25,3.25,3.25,0,0,0,2.51-1,4,4,0,0,0,.59-.55l.9-.09.51-.17a2.85,2.85,0,0,1,1.23-.42,7.42,7.42,0,0,0,4-1.28c1.87-1.15,2.64-1.61,4.12-2.51l.09,0,1.91-1.19a6.68,6.68,0,0,0,2-.94l.38-.21a1.53,1.53,0,0,1,.56-.21l1.87-1c.59-.3,1-.56,1.32-.68a2.79,2.79,0,0,1,.72-.3c1.7,0,2.59-.34,4.68-1.53l.85-.6c.72-.51.72-.51.68-.55H810a2.07,2.07,0,0,0,1.44-.64,4.36,4.36,0,0,1,.73-.55l1.78-1.74c.05,0,.13-.09.47-.22l3.23-1.74.73-.51a7.92,7.92,0,0,1,2.12-1.62l1-.68a4.73,4.73,0,0,0,.77-1.19l-1.41-.85,1.58.47c.08-.26.17-.47.21-.64a2,2,0,0,0,.72-1.06,4.05,4.05,0,0,0,.21-.56c.17-.29.26-.46.26-.46a7.12,7.12,0,0,0,1.49-5,6.89,6.89,0,0,0-1.58-4.59,3.53,3.53,0,0,0-2.72-1.28h0c-1.57.38-2.89.81-3.61,2a3.53,3.53,0,0,0-.64,1.78,3.76,3.76,0,0,0-.17.39,2.8,2.8,0,0,1-1.53.51,4.29,4.29,0,0,0-2.73,1.1,8.32,8.32,0,0,1-.8.47c-.9.51-1.75.89-2.73,1.36L808,226a21.78,21.78,0,0,0-4.08,1.37l-1,.51c-1.36.42-2.72.8-4.13,1.14-1.1.26-2.25.47-3.36.64l-.85.22-.25,0c-.9.17-2,.42-3.28.55l-.64.21a8.55,8.55,0,0,0-1.23.81,2.84,2.84,0,0,0-2.21-1l-.77,0c-1.23.3-1.78.47-2.08.51-1-.46-1.19-.55-1.7-.55a2.73,2.73,0,0,0-.81.13,48.74,48.74,0,0,1,2-5.36c.17-.38.34-.72.47-1a12.21,12.21,0,0,0,.8-2c.47-1.19.68-1.87.85-2.25a4.5,4.5,0,0,1,.39-.85l.72-1.36a15.2,15.2,0,0,0,.85-1.66c.51-1.45.85-2.17.85-2.26a25.88,25.88,0,0,0,2.17-3.65,15.16,15.16,0,0,1,.89-2c.05-.13.17-.34.3-.64.68-1.53,1.28-2.68,1.66-3.4.13-.43.25-.85.38-1.23.3-.9.51-1.7.77-2.47.21-1.36.3-1.45.38-1.57l.47-.51a3.31,3.31,0,0,0,1-1.07l.59-1,.17-.34a2.07,2.07,0,0,1,.39-.81l.34-.72.25-.47c.77-1.49,1.49-3.14,2.26-4.8.51-1.15,1-2.26,1.53-3.32,1.23-2.25,2.34-4.55,3.31-6.63.35-.73.64-1.41,1-2.05.64-1.31,1.24-2.46,1.87-3.53.13-.25.26-.46.39-.72a28.61,28.61,0,0,0,1.27-4c.3-1,.56-1.61.56-1.7,1.57-1.06,2.12-2.34,3.4-6.16.08-.26.21-.56.3-.85l.25-.69c.47-.93,1-2,1.4-3.06l.47-1.23a12.11,12.11,0,0,1,.73-1.53c.21-.34.38-.72.63-1.11l.22-.55a9.34,9.34,0,0,0,.38-1.74l.08-1,1.11-3.83.25-1,.6-3.66c0-.13,0-.25,0-.34.09-.55.17-1.06.22-1.49a22.67,22.67,0,0,0,.25-2.55c0-.51,0-1.06,0-1.7A29.41,29.41,0,0,0,820,128a7.34,7.34,0,0,0-.42-1.23l-.6-1.45a5,5,0,0,1-.17-.55l-.38-1.15a8.37,8.37,0,0,0-1.32-2.68c-.17-.38-.38-.72-.55-1s-.51-.81-.77-1.15-.42-.55-.76-1.06a8.48,8.48,0,0,0-2.85-2.21l-1.53-1.32a21.31,21.31,0,0,0-1.71-1.36,9.89,9.89,0,0,0-1.06-1.15,3.75,3.75,0,0,0-2.34-1,3,3,0,0,0-.89-.29l-.17,0c-1.62-.94-2-1-3-1a7.85,7.85,0,0,0-1.36-.25,11.68,11.68,0,0,0-4.25-1.45,2.81,2.81,0,0,1-1.41-.3,4.84,4.84,0,0,0-2-.51,1,1,0,0,0-.26,0,4.31,4.31,0,0,0-1.7.43,1.57,1.57,0,0,0-.34.21,2,2,0,0,0-.43.26l-.12-.17c-.13-.09-.22-.17-.39-.3a2.61,2.61,0,0,0-1.4-.47h-4.17a5.67,5.67,0,0,0-1.91.3,8.32,8.32,0,0,0-5.4,4.42,10.41,10.41,0,0,0-1.15,3.7c0,.34,0,.64-.09.89a8,8,0,0,1-.12.86,36.7,36.7,0,0,0-1.36,3.65v0a21.42,21.42,0,0,0-1.24,5.52,28.2,28.2,0,0,0,.56,3.79h-.05c.39,1.83,2.89,2.55,4.3,2.55h0c3.28-.25,4.21-.51,4.55-.68s.47-.13.55-.08a7.43,7.43,0,0,0,3.28.55,2,2,0,0,1,.55,0,.72.72,0,0,1,.51.09l.9.08a2.26,2.26,0,0,0,.51-.08,2.92,2.92,0,0,0,1.23-.6l.47-.3c2,1.32,2.38,1.53,3.36,1.58h.38l1.06-.13a7.69,7.69,0,0,0,2.38.34h.51a4.2,4.2,0,0,0,2.17,1.19,1.63,1.63,0,0,1,.47.17c2.68.89,4.55,2.51,5,4.25a4.08,4.08,0,0,1,.08.73,25.35,25.35,0,0,1-.85,4.63C803.94,145.83,803.51,147.48,803,149.14Z"/></g></g></svg>